<?xml version="1.0" encoding="UTF-8"?>
<svg width="79px" height="26px" viewBox="0 0 79 26" version="1.1" xmlns="http://www.w3.org/2000/svg" xmlns:xlink="http://www.w3.org/1999/xlink">
    <!-- Generator: Sketch 48.2 (47327) - http://www.bohemiancoding.com/sketch -->
    <title>allbirds</title>
    <desc>Created with Sketch.</desc>
    <defs></defs>
    <g id="Page-1" stroke="none" stroke-width="1" fill="none" fill-rule="evenodd">
        <g id="allbirds" fill="#000000" fill-rule="nonzero">
            <path d="M29.1,1.2 C29.2,0.9 29.1,0.7 28.7,0.7 L27.7,0.7 C27.4,0.7 27.1,0.9 26.9,1.2 C26.6,1.9 21.2,15.9 20.9,16.7 C20.6,17.4 20.1,18.2 18.8,18.2 C18.3,18.2 17.8,18 17.6,17.7 C17.4,17.4 17.4,17.1 17.4,16.7 C17.5,16.4 17.9,15.2 17.9,15.2 C19.1,12.1 21.1,6.8 22.3,3.8 C22.4,3.5 22.3,3.3 21.9,3.3 L20.9,3.3 C20.6,3.3 20.3,3.5 20.1,3.8 C18.4,8.2 15.4,15.8 15.1,16.7 C14.8,17.4 14.3,18.2 13,18.2 C12.5,18.2 12,18 11.8,17.7 C11.6,17.4 11.6,17.1 11.6,16.7 C11.7,16.4 12,15.4 12,15.4 L14.1,9.9 C14.2,9.6 14.1,9.4 13.7,9.4 L12.7,9.4 C12.4,9.4 12.1,9.6 11.9,9.9 L11.3,11.3 C11.2,11.1 11,10.9 10.9,10.7 C10,9.6 8.6,9 7.1,9 C4.1,9 1.3,11.4 0.9,14.4 C0.7,15.9 1.1,17.4 2,18.4 C2.9,19.5 4.3,20.1 5.8,20.1 C7.3,20.1 8.8,19.5 9.9,18.5 C10.4,19.4 11.4,20.1 12.9,20.1 C14.1,20.1 15.1,19.7 15.9,18.9 C16.5,19.7 17.5,20.1 18.6,20.1 C18.6,20.1 18.6,20.1 18.6,20.1 C18.6,20.1 18.6,20.1 18.6,20.1 C19.8,20.1 20.8,19.7 21.5,18.9 C22.1,19.7 23.1,20.1 24.2,20.1 C24.2,20.1 24.2,20.1 24.2,20.1 C24.2,20.1 24.2,20.1 24.2,20.1 C25.8,20.1 27.2,19.3 27.9,17.8 C28,18 28.2,18.2 28.3,18.4 C29.2,19.5 30.6,20.1 32.1,20.1 C35.1,20.1 37.9,17.7 38.3,14.7 C38.3,14.5 38.4,14.2 38.4,14 C39.5,13.9 40.5,13.5 41.4,13.1 C41,14.1 40.7,14.9 40.5,15.3 C40,16.5 40.1,17.7 40.7,18.7 C41.3,19.6 42.3,20.1 43.5,20.1 C45.3,20.1 46.7,19.1 47.4,17.4 C47.7,16.7 48.9,13.4 50,10.8 C50.6,11.5 51.7,12.3 52.5,12.6 C52.1,13.6 51.5,15.2 51.4,15.4 C50.9,16.6 51,17.8 51.6,18.8 C52.2,19.7 53.2,20.2 54.4,20.2 C55.6,20.2 56.8,19.7 57.6,18.8 C58.5,19.7 59.7,20.2 61.1,20.2 C62.6,20.2 64.1,19.6 65.2,18.6 C65.7,19.5 66.7,20.2 68.2,20.2 C68.2,20.2 68.2,20.2 68.2,20.2 C68.2,20.2 68.2,20.2 68.2,20.2 C70,20.2 71.4,19.2 72.1,17.5 C72.1,17.4 73.2,14.7 73.7,13.4 C73.9,14 74.2,14.5 74.6,15.1 C75.4,16.5 76.2,18 76.2,19.5 C76.2,22.7 74,23.3 73.3,23.4 C72.8,23.5 72.4,24 72.5,24.5 C72.6,25 73,25.4 73.5,25.4 C73.5,25.4 73.6,25.4 73.6,25.4 C75.7,25.1 78.2,23.4 78.2,19.5 C78.2,17.5 77.2,15.7 76.4,14.2 C75.7,12.9 75,11.6 75.2,10.7 C75.3,10 75.8,9.7 76.5,9.6 C76.6,9.6 76.7,9.5 76.7,9.4 L77.1,8.5 C77.2,8.3 77.1,8.2 77,8.1 C76.8,8 76.4,7.8 76,7.8 C74.9,7.8 73.7,8.1 72.6,10.9 C72.6,11 70.4,16.6 70.3,16.8 C70,17.5 69.5,18.3 68.3,18.3 C67.8,18.3 67.3,18.1 67.1,17.8 C66.9,17.5 66.9,17.2 66.9,16.8 C66.9,16.5 67.1,16.2 67.2,15.9 C68,13.8 71,6.3 71.9,4 C72,3.7 71.9,3.5 71.5,3.5 L70.5,3.5 C70.2,3.5 69.9,3.7 69.7,4 C69,5.8 67.8,9 66.7,11.6 C66.6,11.4 66.4,11.2 66.2,11 C65.3,9.9 63.9,9.3 62.4,9.3 C59.4,9.3 56.6,11.7 56.2,14.7 C56.1,15.6 56.1,16.5 56.4,17.2 C56,17.9 55.2,18.4 54.3,18.4 C53.8,18.4 53.3,18.2 53.1,17.9 C52.8,17.5 52.8,17 53.1,16.4 C53.2,16.1 54.2,13.3 54.3,13.1 C54.4,12.9 54.6,12.4 54.3,11.9 C54.1,11.4 53.6,11.2 53.2,11.1 C52.2,10.8 50.9,10.1 50.8,8.7 C50.8,8.3 50.7,8 50.3,8 L49.3,8 C49,8 48.7,8.2 48.5,8.5 C47.5,11.2 45.6,16.1 45.2,17 C44.9,17.7 44.4,18.5 43.1,18.5 C42.6,18.5 42.1,18.3 41.9,18 C41.6,17.6 41.6,17.1 41.9,16.5 C42.3,15.4 43.6,12 44.3,10.3 C44.4,10 44.3,9.8 43.9,9.8 L42.8,9.8 C42.5,9.8 42.1,10 41.9,10.3 C40.8,11.6 39.1,12.4 37.6,12.6 C37.4,12.1 37.1,11.7 36.8,11.3 C35.9,10.2 34.5,9.6 33,9.6 C32.2,9.6 31.4,9.8 30.7,10.1 C31.5,8 32.3,5.8 32.9,4.3 C33,4 32.9,3.8 32.5,3.8 L31.5,3.8 C31.2,3.8 30.9,4 30.7,4.3 C29,8.7 26,16.4 25.7,17.2 C25.4,17.9 24.9,18.7 23.7,18.7 C23.2,18.7 22.7,18.5 22.5,18.2 C22.3,17.9 22.3,17.6 22.3,17.2 C22.4,16.9 22.7,15.9 22.7,15.9 C23.6,15.4 27.9,4.3 29.1,1.2 Z M6.2,18.2 C5.3,18.2 4.6,17.9 4,17.2 C3.5,16.6 3.3,15.7 3.4,14.8 C3.7,12.8 5.5,11.1 7.5,11.1 C8.4,11.1 9.1,11.4 9.7,12.1 C10.2,12.7 10.4,13.6 10.3,14.5 C10.1,16.5 8.2,18.2 6.2,18.2 Z M36.3,14.5 C36,16.5 34.2,18.2 32.2,18.2 C31.3,18.2 30.6,17.9 30.1,17.2 C29.6,16.6 29.4,15.7 29.5,14.8 C29.6,14.2 29.8,13.8 29.9,13.6 C30.6,12.2 32.1,11.1 33.6,11.1 C34.5,11.1 35.2,11.4 35.7,12.1 C36.3,12.7 36.5,13.6 36.3,14.5 Z M61.7,18.2 C60.8,18.2 60.1,17.9 59.6,17.2 C59.1,16.6 58.9,15.7 59,14.8 C59.3,12.8 61.1,11.1 63.1,11.1 C64,11.1 64.7,11.4 65.2,12.1 C65.7,12.7 65.9,13.6 65.8,14.5 C65.5,16.5 63.7,18.2 61.7,18.2 Z M43.8,6 C43.9,5.2 44.7,4.6 45.4,4.6 C46.2,4.6 46.7,5.2 46.6,6 C46.5,6.8 45.7,7.4 45,7.4 C44.3,7.4 43.7,6.8 43.8,6 Z" id="Shape"></path>
        </g>
    </g>
</svg>