<?xml version="1.0" encoding="UTF-8"?>
<svg width="74px" height="13px" viewBox="0 0 74 13" version="1.1" xmlns="http://www.w3.org/2000/svg" xmlns:xlink="http://www.w3.org/1999/xlink">
    <!-- Generator: Sketch 48.2 (47327) - http://www.bohemiancoding.com/sketch -->
    <title>amiri</title>
    <desc>Created with Sketch.</desc>
    <defs></defs>
    <g id="Page-1" stroke="none" stroke-width="1" fill="none" fill-rule="evenodd">
        <g id="amiri" fill="#000000" fill-rule="nonzero">
            <g id="Group">
                <path d="M27.1,7.5 C27.5,6.9 27.8,6.3 28.1,5.7 C29.1,3.9 30.1,2.1 31.1,0.3 C31.2,0.1 31.3,0 31.6,0 C32.4,0 33.2,0 34,0 C34,0.1 34,7.9 34,11.6 C34,11.9 33.9,12 33.6,12 C33.1,12 32.6,12 32.1,12 C31.7,12 31.7,12 31.7,11.6 C31.7,9.2 31.7,6.7 31.7,4.3 C31.7,4.2 31.7,4 31.7,3.9 C31.7,3.9 31.6,3.9 31.6,3.9 C30.1,6.6 28.6,9.3 27.1,12 C25.6,9.2 24.1,6.6 22.6,3.9 C22.6,3.9 22.5,3.9 22.5,3.9 C22.5,4 22.5,4.1 22.5,4.3 C22.5,6.8 22.5,9.2 22.5,11.7 C22.5,12 22.4,12.1 22.1,12.1 C21.6,12.1 21,12.1 20.5,12.1 C20.3,12.1 20.2,12 20.2,11.8 C20.2,8 20.2,0.2 20.2,0.1 C20.3,0.1 20.4,0.1 20.5,0.1 C21.2,0.1 21.8,0.1 22.5,0.1 C22.8,0.1 22.9,0.2 23,0.4 C24.3,2.7 25.6,5 26.9,7.3 C26.9,7.3 27,7.4 27.1,7.5 Z" id="Shape"></path>
                <path d="M54.9,7.1 C54.9,7.3 54.9,7.4 54.9,7.5 C54.9,8.9 54.9,10.2 54.9,11.6 C54.9,11.9 54.8,12 54.5,12 C54,12 53.5,12 52.9,12 C52.6,12 52.5,11.9 52.5,11.6 C52.5,9.3 52.5,7 52.5,4.8 C52.5,3.4 52.5,1.9 52.5,0.5 C52.5,0.4 52.5,0.2 52.5,0.1 C52.6,0.1 52.7,0.1 52.8,0.1 C55.3,0.1 57.7,0.1 60.2,0.1 C61,0.1 61.7,0.2 62.5,0.6 C63.4,1.1 63.9,1.8 64.1,2.8 C64.2,3.5 64.2,4.1 64,4.8 C63.6,6 62.7,6.6 61.6,7 C61.4,7.1 61.1,7.1 60.8,7.2 C61.9,8.9 63.1,10.5 64.2,12.2 C64,12.2 64,12.2 63.9,12.2 C63.3,12.2 62.7,12.2 62,12.2 C61.8,12.2 61.6,12.1 61.5,11.9 C60.5,10.4 59.5,9 58.5,7.5 C58.4,7.3 58.2,7.2 58,7.2 C57,7.1 55.9,7.1 54.9,7.1 Z M54.9,5.1 C55,5.1 55.1,5.1 55.1,5.1 C56.6,5.1 58.1,5.1 59.6,5.1 C59.9,5.1 60.2,5.1 60.5,5 C61,4.9 61.4,4.7 61.7,4.2 C62.2,3.2 61.6,2 60.4,1.9 C58.6,1.8 56.8,1.8 55,1.8 C54.9,1.8 54.8,1.9 54.8,2 C54.9,3.1 54.9,4.1 54.9,5.1 Z" id="Shape"></path>
                <path d="M0.4,12 C0.7,11.5 0.9,11 1.1,10.6 C2.8,7.2 4.4,3.7 6.1,0.3 C6.2,0.1 6.3,0 6.6,0 C7.1,0 7.5,0 8,0 C8.3,0 8.4,0.1 8.5,0.3 C9.9,3.2 11.3,6.1 12.7,9 C13.1,9.9 13.6,10.8 14,11.7 C14,11.8 14.1,11.9 14.1,12 C14,12 13.9,12 13.8,12 C13.2,12 12.7,12 12.1,12 C11.8,12 11.6,11.9 11.5,11.6 C11.1,10.8 10.7,10 10.3,9.2 C10.2,9 10.1,8.9 9.9,8.9 C8.2,8.9 6.4,8.9 4.7,8.9 C4.5,8.9 4.3,9 4.2,9.2 C3.8,10 3.4,10.9 3,11.7 C2.9,11.9 2.8,12 2.5,12 C1.9,12 1.2,12 0.4,12 Z M9.3,7.2 C8.6,5.8 7.9,4.4 7.2,3 C6.5,4.4 5.8,5.8 5.1,7.2 C6.6,7.2 7.9,7.2 9.3,7.2 Z" id="Shape"></path>
                <path d="M71.7,12 C71.7,8 71.7,4 71.7,0 C72.5,0 73.2,0 74,0 C74,0.1 74,0.2 74,0.3 C74,4.1 74,7.8 74,11.6 C74,11.9 73.9,12 73.6,12 C73,12 72.4,12 71.7,12 Z" id="Shape"></path>
                <path d="M44.4,0 C44.4,4 44.4,8 44.4,12.1 C44.1,12.1 43.8,12.1 43.6,12.1 C43.2,12.1 42.8,12.1 42.4,12.1 C42.1,12.1 42.1,12 42.1,11.8 C42.1,9.6 42.1,7.4 42.1,5.2 C42.1,3.6 42.1,2 42.1,0.5 C42.1,0.2 42.2,0.1 42.4,0.2 C43.1,0 43.7,0 44.4,0 Z" id="Shape"></path>
            </g>
        </g>
    </g>
</svg>