<?xml version="1.0" encoding="UTF-8"?>
<svg width="64px" height="33px" viewBox="0 0 64 33" version="1.1" xmlns="http://www.w3.org/2000/svg" xmlns:xlink="http://www.w3.org/1999/xlink">
    <!-- Generator: Sketch 48.2 (47327) - http://www.bohemiancoding.com/sketch -->
    <title>away</title>
    <desc>Created with Sketch.</desc>
    <defs></defs>
    <g id="Page-1" stroke="none" stroke-width="1" fill="none" fill-rule="evenodd">
        <g id="away" fill-rule="nonzero">
            <rect id="Rectangle-path" fill="#000000" x="0.1" y="0.8" width="63.7" height="31.9"></rect>
            <path d="M8.3,19.6 L7.6,21.1 L5.3,21.1 L9.8,11.6 L11.9,11.6 L16.4,21.1 L13.9,21.1 L13.2,19.6 L8.3,19.6 Z M10.7,14.3 L9.2,17.6 L12.2,17.6 L10.7,14.3 Z" id="Shape" fill="#FFFFFF"></path>
            <path d="M40,19.6 L39.3,21.1 L37,21.1 L41.5,11.6 L43.6,11.6 L48.1,21.1 L45.6,21.1 L44.9,19.6 L40,19.6 Z M42.4,14.3 L40.9,17.6 L43.9,17.6 L42.4,14.3 Z" id="Shape" fill="#FFFFFF"></path>
            <polygon id="Shape" fill="#FFFFFF" points="26.6 14.7 23.6 21.2 21.6 21.2 17 11.6 19.4 11.6 22.6 18 25.6 11.6 26.6 11.6 27.6 11.6 30.6 18 33.8 11.6 36.2 11.6 31.6 21.1 29.6 21.1"></polygon>
            <polygon id="Shape" fill="#FFFFFF" points="53.7 21.1 52.4 21.1 52.4 17.2 48.6 11.7 48.6 11.6 51.3 11.6 53.6 15.1 56 11.6 58.7 11.6 58.7 11.7 54.9 17.2 54.9 21.1"></polygon>
        </g>
    </g>
</svg>