<?xml version="1.0" encoding="UTF-8"?>
<svg width="81px" height="20px" viewBox="0 0 81 20" version="1.1" xmlns="http://www.w3.org/2000/svg" xmlns:xlink="http://www.w3.org/1999/xlink">
    <!-- Generator: Sketch 48.2 (47327) - http://www.bohemiancoding.com/sketch -->
    <title>betabrand</title>
    <desc>Created with Sketch.</desc>
    <defs></defs>
    <g id="Page-1" stroke="none" stroke-width="1" fill="none" fill-rule="evenodd">
        <g id="betabrand" fill="#000000" fill-rule="nonzero">
            <path d="M18,4.7 C18.7,5 19.2,5.5 19.6,6.1 C20,6.7 20.2,7.3 20.3,8 C20.4,8.4 20.4,9.1 20.4,9.9 L13.5,9.9 C13.5,10.8 13.9,11.5 14.5,11.9 C14.9,12.1 15.3,12.3 15.9,12.3 C16.5,12.3 16.9,12.2 17.3,11.9 C17.5,11.7 17.7,11.5 17.8,11.3 L20.3,11.3 C20.2,11.9 19.9,12.4 19.4,13 C18.6,13.9 17.4,14.4 15.9,14.4 C14.6,14.4 13.5,14 12.6,13.2 C11.6,12.4 11.2,11.2 11.2,9.4 C11.2,7.8 11.6,6.5 12.5,5.7 C13.4,4.8 14.5,4.4 15.9,4.4 C16.6,4.3 17.4,4.4 18,4.7 Z M14.4,6.9 C14.1,7.3 13.8,7.7 13.7,8.4 L17.9,8.4 C17.9,7.7 17.6,7.3 17.2,6.9 C16.8,6.6 16.3,6.4 15.7,6.4 C15.2,6.3 14.7,6.5 14.4,6.9 Z" id="Shape"></path>
            <path d="M20.3,6.4 L20.3,4.6 L21.6,4.6 L21.6,2 L24,2 L24,4.6 L25.5,4.6 L25.5,6.4 L24,6.4 L24,11.4 C24,11.8 24,12 24.1,12.1 C24.2,12.2 24.5,12.2 25,12.2 C25.1,12.2 25.2,12.2 25.2,12.2 C25.3,12.2 25.4,12.2 25.4,12.2 L25.4,14 L24.2,14 C23,14 22.2,13.8 21.8,13.4 C21.5,13.1 21.4,12.7 21.4,12.1 L21.4,6.3 L20.3,6.3 L20.3,6.4 Z" id="Shape"></path>
            <path d="M30.7,8.2 C31.2,8.1 31.5,8.1 31.7,8 C32.1,7.9 32.2,7.6 32.2,7.3 C32.2,6.9 32.1,6.6 31.8,6.5 C31.5,6.4 31.1,6.3 30.6,6.3 C30,6.3 29.6,6.4 29.3,6.7 C29.1,6.9 29,7.2 29,7.6 L26.6,7.6 C26.7,6.8 26.9,6.1 27.3,5.6 C28,4.8 29.1,4.4 30.7,4.4 C31.7,4.4 32.7,4.6 33.5,5 C34.3,5.4 34.7,6.2 34.7,7.3 L34.7,11.6 C34.7,11.9 34.7,12.3 34.7,12.7 C34.7,13 34.8,13.2 34.8,13.4 C34.9,13.5 35,13.6 35.2,13.7 L35.2,14.1 L32.5,14.1 C32.4,13.9 32.4,13.7 32.3,13.6 C32.3,13.4 32.2,13.2 32.2,13 C31.9,13.4 31.5,13.7 31,13.9 C30.5,14.2 29.9,14.4 29.2,14.4 C28.3,14.4 27.6,14.2 27.1,13.7 C26.5,13.2 26.3,12.5 26.3,11.6 C26.3,10.4 26.7,9.6 27.6,9.1 C28.1,8.8 28.8,8.6 29.8,8.5 L30.7,8.2 Z M32.2,9.4 C32,9.5 31.9,9.6 31.7,9.6 C31.5,9.7 31.3,9.7 31,9.8 L30.4,9.9 C29.9,10 29.5,10.1 29.3,10.2 C28.9,10.4 28.7,10.8 28.7,11.2 C28.7,11.6 28.8,11.9 29.1,12.1 C29.3,12.3 29.6,12.4 30,12.4 C30.5,12.4 31,12.2 31.5,11.9 C32,11.6 32.2,11 32.2,10.2 L32.2,9.4 Z" id="Shape"></path>
            <path d="M44.2,5.7 C44.9,6.6 45.3,7.7 45.3,9.2 C45.3,10.7 45,11.9 44.3,12.8 C43.6,13.8 42.6,14.2 41.4,14.2 C40.6,14.2 40,14 39.5,13.7 C39.2,13.5 38.9,13.2 38.6,12.7 L38.6,13.9 L36.2,13.9 L36.2,1.2 L38.7,1.2 L38.7,5.7 C39,5.3 39.4,4.9 39.7,4.7 C40.1,4.4 40.7,4.3 41.4,4.3 C42.5,4.3 43.5,4.8 44.2,5.7 Z M42.2,11.4 C42.6,10.9 42.7,10.2 42.7,9.4 C42.7,8.7 42.6,8.2 42.4,7.7 C42.1,6.9 41.5,6.5 40.6,6.5 C39.7,6.5 39.1,6.9 38.7,7.7 C38.5,8.1 38.4,8.7 38.4,9.4 C38.4,10.2 38.6,10.9 38.9,11.4 C39.3,11.9 39.8,12.2 40.5,12.2 C41.3,12.2 41.8,11.9 42.2,11.4 Z" id="Shape"></path>
            <path d="M51.4,4.3 C51.4,4.3 51.5,4.3 51.6,4.3 L51.6,6.8 C51.4,6.8 51.3,6.8 51.2,6.8 C51.1,6.8 51,6.8 50.9,6.8 C49.9,6.8 49.2,7.1 48.9,7.8 C48.7,8.2 48.6,8.7 48.6,9.5 L48.6,14 L46.1,14 L46.1,4.6 L48.4,4.6 L48.4,6.2 C48.8,5.6 49.1,5.1 49.4,4.9 C49.9,4.5 50.5,4.3 51.2,4.3 C51.4,4.3 51.4,4.3 51.4,4.3 Z" id="Shape"></path>
            <path d="M56.4,8.2 C56.9,8.1 57.2,8.1 57.4,8 C57.8,7.9 57.9,7.6 57.9,7.3 C57.9,6.9 57.8,6.6 57.5,6.5 C57.2,6.4 56.8,6.3 56.3,6.3 C55.7,6.3 55.3,6.4 55,6.7 C54.8,6.9 54.7,7.2 54.7,7.6 L52.3,7.6 C52.4,6.8 52.6,6.1 53,5.6 C53.7,4.8 54.8,4.4 56.4,4.4 C57.4,4.4 58.4,4.6 59.2,5 C60,5.4 60.4,6.2 60.4,7.3 L60.4,11.6 C60.4,11.9 60.4,12.3 60.4,12.7 C60.4,13 60.5,13.2 60.5,13.4 C60.6,13.5 60.7,13.6 60.9,13.7 L60.9,14.1 L58.2,14.1 C58.1,13.9 58.1,13.7 58,13.6 C58,13.4 57.9,13.2 57.9,13 C57.6,13.4 57.2,13.7 56.7,13.9 C56.2,14.2 55.6,14.4 54.9,14.4 C54,14.4 53.3,14.2 52.8,13.7 C52.3,13 52,12.3 52,11.4 C52,10.2 52.4,9.4 53.3,8.9 C53.8,8.6 54.5,8.4 55.5,8.3 L56.4,8.2 Z M57.9,9.4 C57.7,9.5 57.6,9.6 57.4,9.6 C57.2,9.7 57,9.7 56.7,9.8 L56.1,9.9 C55.6,10 55.2,10.1 55,10.2 C54.6,10.4 54.4,10.8 54.4,11.2 C54.4,11.6 54.5,11.9 54.8,12.1 C55,12.3 55.3,12.4 55.7,12.4 C56.2,12.4 56.7,12.2 57.2,11.9 C57.7,11.6 57.9,11 57.9,10.2 L57.9,9.4 Z" id="Shape"></path>
            <path d="M69.1,5.1 C69.7,5.6 70,6.5 70,7.6 L70,13.9 L67.5,13.9 L67.5,8.2 C67.5,7.7 67.4,7.3 67.3,7.1 C67.1,6.6 66.6,6.4 65.9,6.4 C65.1,6.4 64.5,6.8 64.2,7.5 C64,7.9 64,8.4 64,8.9 L64,14 L61.5,14 L61.5,4.6 L64,4.6 L64,6 C64.3,5.5 64.6,5.2 64.9,5 C65.4,4.6 66,4.4 66.8,4.4 C67.7,4.3 68.5,4.6 69.1,5.1 Z" id="Shape"></path>
            <path d="M76.5,4.7 C76.9,5 77.3,5.3 77.6,5.7 L77.6,1.2 L80.1,1.2 L80.1,13.9 L77.7,13.9 L77.7,12.6 C77.3,13.2 76.9,13.6 76.5,13.8 C76.1,14.1 75.5,14.2 74.8,14.2 C73.7,14.2 72.8,13.8 72,12.9 C71.2,12 70.9,10.9 70.9,9.5 C70.9,7.9 71.3,6.6 72,5.7 C72.7,4.8 73.7,4.3 75,4.3 C75.6,4.3 76.1,4.4 76.5,4.7 Z M77.1,11.4 C77.5,10.9 77.6,10.2 77.6,9.4 C77.6,8.2 77.3,7.4 76.7,6.9 C76.3,6.6 75.9,6.5 75.5,6.5 C74.8,6.5 74.3,6.8 73.9,7.3 C73.6,7.8 73.4,8.5 73.4,9.3 C73.4,10.2 73.6,10.9 73.9,11.4 C74.2,11.9 74.8,12.2 75.5,12.2 C76.2,12.2 76.8,11.9 77.1,11.4 Z" id="Shape"></path>
            <path d="M0.9,4.4 C0.9,3.1 1.3,2 2.1,1.2 C2.8,0.4 3.8,0 5.1,0 C5.2,0 5.3,0 5.4,0 C6.6,0 7.6,0.3 8.4,0.8 C9.2,1.3 9.7,2.3 9.7,3.6 C9.7,4.3 9.5,5 9.1,5.5 C8.7,6 8.1,6.4 7.3,6.5 C8.3,6.6 9,7 9.6,7.6 C10.2,8.3 10.4,9.1 10.4,10.2 C10.4,11.4 10,12.4 9.4,13.1 C8.7,13.8 7.7,14.4 6.5,14.4 C6.4,14.4 6.3,14.4 6.2,14.4 C5.5,14.4 4.2,14.2 3.6,13.8 L2.1,19.4 L0.8,19.4 L0.8,4.4 L0.9,4.4 Z M5.6,5.7 C5.6,5.7 6.4,5.5 6.7,5.2 C7,4.9 7.1,4.4 7.1,3.9 C7.1,3.4 7,2.9 6.7,2.6 C6.4,2.3 6,2.1 5.5,2.1 C5.4,2.1 5.3,2.1 5.2,2.1 C4.2,2.2 3.7,2.9 3.8,4.2 L3.8,9.1 C3.8,11.1 4.6,12.1 6,12 C6.1,12 6.2,12 6.2,12 C6.7,11.9 7.1,11.7 7.4,11.3 C7.7,10.9 7.9,10.4 7.9,9.8 C7.9,8.4 7.2,7.7 5.7,7.6 L5.6,5.7 Z" id="Shape"></path>
        </g>
    </g>
</svg>