<?xml version="1.0" encoding="UTF-8"?>
<svg width="69px" height="17px" viewBox="0 0 69 17" version="1.1" xmlns="http://www.w3.org/2000/svg" xmlns:xlink="http://www.w3.org/1999/xlink">
    <!-- Generator: Sketch 48.2 (47327) - http://www.bohemiancoding.com/sketch -->
    <title>chubbies</title>
    <desc>Created with Sketch.</desc>
    <defs></defs>
    <g id="Page-1" stroke="none" stroke-width="1" fill="none" fill-rule="evenodd">
        <g id="chubbies" transform="translate(-1.000000, 0.000000)" fill="#000000" fill-rule="nonzero">
            <path d="M56.5,2 C56.9,4 53.7,4.8 53.4,3.8 C53.1,2.1 55.3,0.9 56.5,2 Z" id="Shape"></path>
            <path d="M52.7,13.5 C56.6,12.1 57.6,3.3 63.2,6.9 C63.2,6.9 64.1,7.7 63.2,8.7 C61.7,10.1 60,11.3 57.8,12 C57.7,13 57.8,13.9 58.3,14.3 C63.6,13.7 64.7,8.8 67.5,5.6 C68.1,5.5 68.5,5.6 68.8,5.9 C69.5,7 68.2,7.2 68,8.2 C68.3,10.1 69.4,11.5 69,13.3 C68.4,16.2 63.4,17.7 62.1,14.6 C60.5,15.6 58.5,17 56.2,15.9 C55.7,15.3 55.3,14.6 55.2,13.6 C54,13.7 52.7,16.3 50.8,16.1 C48.6,13.5 52.3,9.8 52.3,6.2 C53,6.2 54,6.1 54.3,6.5 C54.4,9.2 53.1,10.9 52.7,13.5 Z M58.3,10.9 C59.2,9.7 61.5,9.8 61.1,7.3 C59.5,6.8 58.1,9.6 58.3,10.9 Z M66.3,14.5 C67.1,13.5 67,10.6 66.3,9.6 C65.4,11 64.1,12 63.2,13.4 C63.7,14.4 64.9,15.2 66.3,14.5 Z" id="Shape"></path>
            <path d="M42.2,15 C41.7,15.6 41.1,16.6 40.2,16 C39.8,11.3 43.1,6 44,0.9 C45,0.8 45.5,1.1 46,1.4 C45.5,4.8 44.2,7.4 43.2,10.4 C45,10 45.4,5.6 48.3,6.1 C53.1,6.8 46.9,20.9 42.2,15 Z M47.1,8.1 C45.3,9.7 43.6,11.4 42.8,14 C45.7,15.9 49.1,10.4 47.1,8.1 Z" id="Shape"></path>
            <path d="M32.6,14 C35.6,15.9 39,10.4 36.9,8.1 C35.1,9.7 33.4,11.4 32.6,14 Z M4.7,14.2 C10.8,13.3 10.4,6.2 12.1,0.9 C13,0.8 13.5,1 14.1,1.2 C14.2,4.5 12.2,7.8 11.3,10.9 C13.2,10 14.7,5.1 18.7,6.3 C18.6,9.3 16.9,10.7 16.7,13.5 C19.5,12.3 20.9,9.7 21.3,6.1 C22.1,6.2 23.2,5.9 23.6,6.4 C23.5,9.5 22,11.3 21.3,13.8 C24.4,13.2 25.9,8.9 27.7,6.1 C31.2,6.9 27.1,11 27.4,13.5 C31.9,11.7 32.1,5.6 33.8,1 C34.8,0.9 35.3,1.2 35.8,1.5 C35.3,4.9 34,7.5 33,10.5 C34.8,10.1 35.2,5.7 38.1,6.2 C42.9,7 36.6,21.1 32,15.2 C31.5,15.8 30.9,16.8 30,16.2 C29.1,15.3 29.9,13.9 30.3,12.9 C28.8,13.8 27.6,16.9 25.7,16.5 C23.7,16.1 26,13 26.2,11.4 C24.5,12.4 23.2,16 20.1,16.5 C20.1,16.5 19.9,16.5 19.6,16.2 C18.9,15.5 18.8,14.7 19.3,13.6 C18.1,13.7 17.1,16.3 15,16.4 C15,16.4 14.2,16.6 14,15.6 C14.1,12.5 15.7,11 16.3,8.4 C12.3,9.5 12.2,14.4 9,16.3 C8.7,16.4 8.5,16.3 8.4,16.1 C7.8,15.4 8.4,14.2 8.7,13.5 C7.5,14.8 1.7,18.7 1,13.8 C0.5,10 4.6,4.2 9.4,6.6 C9.4,7.4 8.9,7.6 8.6,8.1 C7.4,8.2 7.5,7.1 6.3,7.3 C4.2,8.3 3.5,14.4 4.7,14.2 Z" id="Shape"></path>
        </g>
    </g>
</svg>