<?xml version="1.0" encoding="UTF-8"?>
<svg width="80px" height="17px" viewBox="0 0 80 17" version="1.1" xmlns="http://www.w3.org/2000/svg" xmlns:xlink="http://www.w3.org/1999/xlink">
    <!-- Generator: Sketch 48.2 (47327) - http://www.bohemiancoding.com/sketch -->
    <title>Dyne</title>
    <desc>Created with Sketch.</desc>
    <defs></defs>
    <g id="Page-1" stroke="none" stroke-width="1" fill="none" fill-rule="evenodd">
        <g id="Dyne" fill="#000000" fill-rule="nonzero">
            <path d="M10.4,0.4 L4.4,0.4 L4.4,6.9 L0.7,6.9 L0.7,9.7 L4.4,9.7 L4.4,16.4 L10.4,16.4 C15.3,16.4 18.9,13 18.9,8.4 C18.9,3.7 15.3,0.4 10.4,0.4 Z M10.4,13.5 L7.5,13.5 L7.5,9.7 L11.5,9.7 L11.5,6.9 L7.5,6.9 L7.5,3.2 L10.4,3.2 C13.5,3.2 15.7,5.3 15.7,8.3 C15.6,11.5 13.5,13.5 10.4,13.5 Z" id="Shape"></path>
            <polygon id="Shape" points="31 7.1 26.8 0.4 23.1 0.4 29.5 10.1 29.5 16.4 32.6 16.4 32.6 10 39 0.4 35.4 0.4"></polygon>
            <polygon id="Shape" points="56.3 10.9 48.1 0.4 45.3 0.4 45.3 16.4 48.4 16.4 48.4 5.6 56.7 16.4 59.3 16.4 59.3 0.4 56.3 0.4"></polygon>
            <polygon id="Shape" points="70.5 13.6 70.5 9.7 78.4 9.7 78.4 6.9 70.5 6.9 70.5 3.2 79.4 3.2 79.4 0.4 67.4 0.4 67.4 16.4 79.5 16.4 79.5 13.6"></polygon>
        </g>
    </g>
</svg>