<?xml version="1.0" encoding="UTF-8"?>
<svg width="76px" height="45px" viewBox="0 0 76 45" version="1.1" xmlns="http://www.w3.org/2000/svg" xmlns:xlink="http://www.w3.org/1999/xlink">
    <!-- Generator: Sketch 48.2 (47327) - http://www.bohemiancoding.com/sketch -->
    <title>Faherty</title>
    <desc>Created with Sketch.</desc>
    <defs></defs>
    <g id="Page-1" stroke="none" stroke-width="1" fill="none" fill-rule="evenodd">
        <g id="Faherty" fill-rule="nonzero">
            <g id="Group">
                <path d="M21.2,27.7 C21.3,27.3 21.4,26.9 21.5,26.5 C21.8,25.6 22.1,24.8 22.6,24 C17,22.2 11.4,20.5 5.8,18.6 C5.9,18.4 5.9,18.3 6,18.1 C6.9,18.4 7.8,18.7 8.7,19 C11.3,19.9 14,20.7 16.6,21.6 C18.3,22.2 20.1,22.7 21.8,23.3 C22.1,23.4 22.5,23.5 22.8,23.6 C23.2,23.1 23.5,22.6 23.9,22.1 C23.5,21.8 23,21.5 22.6,21.1 C21.4,20.3 20.2,19.4 18.9,18.6 C18,18 17.1,17.4 16.2,16.7 C14.9,15.8 13.5,14.9 12.2,13.9 C11.8,13.7 11.8,13.6 12.3,13.3 C16.3,16 20.3,18.8 24.4,21.5 C25,21 25.5,20.5 26,19.9 C25.9,19.8 25.9,19.7 25.8,19.7 C24.7,18.5 23.6,17.4 22.4,16.2 C21.7,15.4 20.9,14.7 20.2,13.9 C19.4,13.1 18.7,12.3 17.9,11.5 C17.1,10.7 16.3,9.8 15.5,9 C14.7,8.2 13.9,7.3 13.1,6.5 C12.3,5.6 11.4,4.8 10.6,3.9 C10.5,3.8 10.5,3.8 10.4,3.7 C10.5,3.6 10.7,3.5 10.7,3.4 C11.4,4.1 12,4.7 12.6,5.3 C13.3,6 13.9,6.7 14.6,7.3 C15.5,8.2 16.3,9.1 17.2,10 C17.9,10.8 18.7,11.5 19.4,12.3 C20.2,13.2 21.1,14 21.9,14.9 C22.7,15.7 23.4,16.5 24.2,17.3 C24.9,18 25.5,18.7 26.2,19.4 C26.3,19.5 26.4,19.6 26.4,19.7 C27.2,19.2 27.9,18.7 28.6,18.3 C24.7,12.9 20.8,7.5 16.9,2.2 C17,2.1 17.1,2 17.3,1.9 C21.2,7.3 25.1,12.7 29,18.2 C29.7,17.9 30.3,17.6 31,17.4 C28.6,12.2 26.1,7 23.7,1.8 C23.9,1.7 24,1.7 24.2,1.6 C26.6,6.8 29.1,12 31.5,17.2 C31.9,17.2 32.9,17 33.3,16.8 C32.5,12.2 31.7,7.5 30.8,2.9 C31,2.9 31.1,2.9 31.3,2.8 C31.8,5.1 32.1,7.4 32.5,9.8 C32.9,12.1 33.3,14.5 33.7,16.8 C34.5,16.7 35.3,16.6 36.1,16.5 C36.4,15.4 36.2,14.4 36.2,13.4 C36.2,13 36.3,12.7 36.3,12.3 C36.3,11.9 36.3,11.5 36.3,11.1 C36.3,10.4 36.4,9.7 36.4,8.9 C36.4,8.3 36.4,7.6 36.4,7 C36.4,6.8 36.5,6.5 36.5,6.3 C36.5,6.2 36.5,6.2 36.5,6.1 C36.3,5.7 36.5,5.3 36.5,4.9 C36.5,4.5 36.5,4.1 36.5,3.7 C36.5,3.1 36.6,2.5 36.6,1.9 C36.6,1.6 36.6,1.3 36.6,1 C36.7,1 36.9,1 37.1,1 C37.1,1.1 37.1,1.3 37.1,1.4 C37.1,3.2 37,5 37,6.8 C37,7.7 37,8.7 36.9,9.6 C36.9,10 36.9,10.4 36.8,10.8 C36.8,11.1 36.8,11.4 36.8,11.7 C36.8,12.1 36.8,12.6 36.8,13 C36.8,13.2 36.8,13.3 36.8,13.5 C36.8,13.7 36.8,13.9 36.7,14.1 C36.7,14.3 36.7,14.6 36.7,14.8 C36.7,15.3 36.7,15.9 36.7,16.5 C37.3,16.7 38,16.6 38.7,16.7 C39.9,11.4 41.1,6.1 42.3,0.7 C42.5,0.8 42.6,0.8 42.8,0.8 C41.6,6.1 40.4,11.3 39.2,16.6 C39.9,16.9 40.7,16.9 41.4,17.3 C44,13.1 46.5,8.9 49.1,4.7 C49.2,4.7 49.4,4.8 49.6,4.9 C47,9.1 44.5,13.3 41.9,17.5 C42.5,17.8 43,18 43.6,18.2 C43.8,18.3 43.9,18.3 44.1,18.1 C44.1,18.1 44.2,18 44.2,18 C44.8,17.2 45.4,16.4 46,15.7 C46.5,15.1 47,14.5 47.4,13.9 C48,13.1 48.7,12.3 49.3,11.5 C49.7,11 50.2,10.4 50.6,9.9 C51.1,9.3 51.5,8.8 52,8.2 C52.5,7.5 53,6.9 53.5,6.2 C54,5.6 54.5,4.9 55,4.3 C55.3,3.9 55.7,3.5 56,3.1 C56.1,3 56.2,2.9 56.3,2.8 C56.4,2.9 56.5,3 56.6,3.1 C52.5,8.3 48.4,13.4 44.3,18.5 C45.1,19 45.8,19.5 46.5,20 C46.7,19.8 46.9,19.7 47.1,19.5 C47.7,18.9 48.3,18.3 48.9,17.7 C49.7,16.9 50.6,16.1 51.4,15.3 C52.2,14.5 53.1,13.7 53.9,12.9 C54.7,12.1 55.5,11.4 56.3,10.6 C57.1,9.8 57.9,9.1 58.7,8.3 C59.4,7.6 60.1,6.9 60.8,6.2 C61.2,5.8 61.7,5.4 62.1,5 C62.2,5.1 62.3,5.2 62.5,5.3 C62.2,5.5 62,5.7 61.8,5.9 C60.4,7.3 58.9,8.7 57.5,10.1 C56.7,10.9 55.9,11.6 55.2,12.4 C54.4,13.2 53.5,14 52.7,14.9 C52,15.6 51.2,16.3 50.5,17.1 C49.7,17.8 48.9,18.6 48.2,19.3 C47.9,19.6 47.5,19.9 47.2,20.2 C47.6,20.6 47.9,21 48.3,21.4 C52.8,19.1 57.4,16.8 61.9,14.5 C62,14.6 62.1,14.8 62.2,14.9 C57.7,17.2 53.2,19.5 48.7,21.7 C49.2,22.3 49.7,23 50.2,23.7 C56.4,22.5 62.5,21.3 68.8,20.1 C68.9,20.3 68.9,20.4 68.9,20.5 C68.5,20.7 68.1,20.8 67.6,20.8 C67.3,20.8 67.1,20.9 66.8,21 C66.2,21.1 65.6,21.2 64.9,21.3 C64.1,21.5 63.3,21.7 62.5,21.8 C61.9,21.9 61.4,22 60.8,22.1 C60.5,22.1 60.3,22.2 60,22.3 C59.6,22.4 59.1,22.5 58.7,22.6 C58.1,22.7 57.5,22.8 56.8,23 C56.1,23.1 55.3,23.3 54.6,23.4 C54.2,23.5 53.9,23.6 53.5,23.7 C53.1,23.8 52.6,23.8 52.2,23.9 C51.6,24 51,24.2 50.3,24.3 C50.8,25.3 51.3,26.4 51.5,27.5 C51.5,27.5 51.4,27.6 51.4,27.6 C50.9,27.6 50.3,27.7 49.8,27.7 C48,27.7 46.1,27.7 44.3,27.6 C43.2,27.5 42.2,27.4 41.1,27.1 C40.6,27 40.1,26.7 39.7,26.4 C39.3,26 39.2,25.2 39.7,24.8 C40.1,24.5 40.5,24.2 41,24.1 C41.1,24 41.3,24 41.5,23.9 C41.1,23.6 40.7,23.3 40.2,23.2 C39.8,23.1 39.5,23.1 39.1,23 C37.8,22.8 36.5,23 35.3,23.6 C34.4,24 33.6,24.5 32.8,25 C31.6,25.7 30.3,26.3 28.9,26.7 C27.6,27.1 26.3,27.3 25.1,27.6 C23.8,27.6 22.5,27.8 21.2,27.7 Z" id="Shape" fill="#1F191A"></path>
                <path d="M12.5,44.2 C12.4,44.2 12.3,44.2 12.2,44.2 C12,44.2 11.9,44.2 11.6,44.1 C11.6,43.9 11.6,43.7 11.7,43.6 C12,42.6 12.4,41.5 12.7,40.5 C13,39.6 13.3,38.7 13.6,37.7 C13.9,36.9 14.1,36 14.3,35.2 C14.6,34.3 14.8,33.5 15.1,32.6 C15.3,32 15.5,31.5 15.7,31 C16.3,31 16.8,31 17.3,31 C17.6,31.7 21.4,43.5 21.5,43.9 C20.9,44.1 20.3,44 19.6,44.1 C19,43.3 19,42.2 18.6,41.4 C17.1,41.4 15.7,41.3 14.3,41.3 C14,42.2 13.7,43.2 13.4,44 C13.1,44.1 12.8,44.2 12.5,44.2 Z M16.6,34.6 C16.6,34.6 16.5,34.6 16.5,34.6 C15.9,36.1 15.4,37.6 15.1,39.3 C16.1,39.4 17,39.5 18,39.3 C17.6,37.7 17.1,36.2 16.6,34.6 Z" id="Shape" fill="#1F191A"></path>
                <path d="M28,34.5 C28,34.4 28,34.4 28,34.3 C28,34.2 28,34 28,33.9 C28,33.8 28,33.8 28,33.7 C28,32.8 28,31.9 28,31 C28.3,30.9 28.6,30.8 28.8,30.8 C29.1,30.9 29.3,30.9 29.7,31 C29.7,31.2 29.8,31.4 29.8,31.6 C29.8,32.3 29.8,33.1 29.8,33.8 C29.8,37 29.8,40.2 29.8,43.4 C29.8,43.5 29.8,43.7 29.8,43.8 C29.8,44 29.7,44.1 29.5,44.2 C29,44.3 28.6,44.1 28.2,44.2 C28,43.9 27.9,43.7 28.1,43.4 C28.1,43.4 28.1,43.3 28.1,43.2 C28.1,42.6 28.1,42 28.1,41.4 C28.1,41 28.1,40.7 28.1,40.3 C28.1,39.8 28.2,39.3 28,38.9 C26.8,38.9 25.7,38.9 24.5,38.9 C24.5,39.4 24.4,39.9 24.4,40.4 C24.4,41.5 24.4,42.5 24.4,43.6 C24.4,43.8 24.4,43.9 24.4,44.1 C23.8,44.1 23.3,44.3 22.7,44 C22.7,43.8 22.7,43.6 22.7,43.4 C22.7,43 22.8,42.5 22.8,42.1 C22.8,41.7 22.7,41.2 22.7,40.8 C22.7,40.5 22.8,40.2 22.8,39.9 C22.8,39.2 22.8,38.5 22.8,37.9 C22.8,36.6 22.8,35.3 22.8,34.1 C22.8,33.2 22.8,32.3 22.8,31.5 C22.8,31.4 22.8,31.3 22.8,31.2 C23.1,31.1 23.3,31.1 23.4,31 C23.8,31.1 24.2,31.1 24.5,31.2 C24.6,33.1 24.4,35 24.4,36.9 C24.8,36.9 25,36.9 25.3,36.9 C25.5,36.9 25.7,36.9 25.9,37 C26.1,37 26.3,37 26.5,37 C26.6,37 26.6,37 26.7,37 C26.8,37 27,37 27.1,37 C27.3,37 27.5,37 27.7,37 C27.8,37 27.9,37 28,37 C28,36.9 28,36.8 28,36.7 C28,36.6 28,36.6 28,36.5 C28,36.4 28,36.2 28,36.1 C28,35.9 28,35.7 28,35.5 C28,34.9 28,34.7 28,34.5 Z" id="Shape" fill="#1F191A"></path>
                <path d="M7.3,40.3 C7.3,40.6 7.3,40.9 7.3,41.2 C7.3,41.6 7.3,41.9 7.3,42.3 C7.3,42.5 7.3,42.7 7.3,42.9 C7.3,43.3 7.3,43.6 7.2,44 C7.2,44.1 7.1,44.2 7,44.3 C6.5,44.3 6,44.3 5.5,44.3 C5.1,44.2 5.1,44.2 5.2,43.9 C5.2,43.9 5.2,43.8 5.2,43.8 C5.2,42.5 5.2,41.3 5.2,40 C5.2,37.7 5.3,35.4 5.1,33.1 C5.1,32.8 5,32.6 5.1,32.3 C5.2,32 5.1,31.8 5.2,31.5 C5.2,31.4 5.3,31.2 5.4,31.1 C6,31.1 6.5,31.1 7,31.2 C7.9,31.3 8.8,31.1 9.6,31.1 C10.5,31.1 11.5,31.1 12.4,31.1 C12.5,31.1 12.5,31.1 12.6,31.1 C12.6,31.7 12.8,32.4 12.5,33 C12.1,33 11.7,33.1 11.4,33.1 C11,33.1 10.5,33 10.1,33 C9.2,33 8.3,33 7.5,33 C7.5,33.1 7.4,33.1 7.4,33.1 C7.4,33.7 7.3,34.3 7.3,34.8 C7.3,35.1 7.3,35.4 7.3,35.7 C7.3,35.9 7.3,36.1 7.3,36.3 C8.4,36.3 9.3,36.3 10.4,36.3 C10.6,37 10.6,37.7 10.4,38.3 C9.4,38.4 8.3,38.2 7.4,38.5 C7.4,39.3 7.3,39.8 7.3,40.3 Z" id="Shape" fill="#1F191A"></path>
                <path d="M21.2,27.7 C22.5,27.8 23.7,27.6 25,27.4 C26.3,27.2 27.6,26.9 28.8,26.5 C30.2,26.1 31.5,25.5 32.7,24.8 C33.5,24.3 34.4,23.8 35.2,23.4 C36.4,22.8 37.7,22.6 39,22.8 C39.4,22.9 39.7,22.9 40.1,23 C40.6,23.1 41,23.4 41.4,23.7 C41.2,23.8 41.1,23.8 40.9,23.9 C40.4,24.1 40,24.3 39.6,24.6 C39.1,25 39.2,25.8 39.6,26.2 C40,26.6 40.5,26.8 41,26.9 C42,27.2 43.1,27.3 44.2,27.4 C46,27.6 47.9,27.6 49.7,27.5 C50.2,27.5 50.8,27.4 51.3,27.4 C51.4,27.4 51.4,27.4 51.4,27.3 C52.3,27.2 53.1,27.1 54,27 C56.4,26.6 58.6,25.8 61,25.3 C61.7,25.1 62.5,25 63.3,25.2 C63.7,25.3 64,25.5 64.4,25.6 C64.1,25.8 63.9,26.1 63.7,26.2 C63.9,26.8 64.2,27.1 64.7,27.3 C65.4,27.6 66.1,27.7 66.9,27.7 C68.2,27.7 69.4,27.7 70.7,27.8 C71.7,27.8 72.8,28 73.8,28 C74.5,28 75.2,28.2 75.7,28.6 C75.7,28.6 75.8,28.7 75.9,28.8 C50.7,28.8 25.6,28.7 0.5,28.7 C0.5,28.3 0.8,28.1 1.1,27.9 C1.4,27.7 1.8,27.6 2.1,27.6 C3.1,27.4 4,27.3 5,27.1 C6.6,26.8 8.3,26.7 9.9,26.3 C10.7,26.1 11.5,25.8 12.4,25.6 C13.3,25.3 14.2,25.1 15.1,25 C15.5,25 15.9,24.9 16.4,24.9 C17,24.9 17.5,24.9 18.1,25.1 C18.2,25.1 18.2,25.2 18.3,25.3 C18.2,25.4 18,25.6 17.9,25.7 C17.8,25.8 17.7,26 17.6,26.1 C17.4,26.5 17.5,26.8 17.9,26.9 C18.3,27 18.7,27.2 19.2,27.3 C19.7,27.6 20.5,27.8 21.2,27.7 Z" id="Shape" fill="#6D6E72"></path>
                <path d="M48.3,43.8 C47.8,44.2 47.2,44.1 46.5,44.1 C46.4,43.9 46.3,43.7 46.1,43.5 C45.7,42.7 45.3,41.9 44.9,41.2 C44.8,41 44.7,40.7 44.6,40.4 C44.4,39.9 44.1,39.4 43.9,39 C43.8,38.7 43.6,38.6 43.3,38.6 C42.9,38.5 42.6,38.4 42.2,38.7 C42.2,39.5 42.3,40.4 42.3,41.2 C42.3,42 42.3,42.9 42.3,43.8 C41.8,44 41.2,44.1 40.5,44 C40.5,43.8 40.4,43.6 40.4,43.3 C40.4,42.6 40.4,42 40.4,41.3 C40.4,40.9 40.5,40.5 40.5,40.1 C40.5,39.3 40.4,38.4 40.4,37.6 C40.4,35.9 40.4,34.2 40.4,32.4 C40.4,32 40.4,31.5 40.4,31 C40.6,31 40.7,31 40.8,31 C41.6,31 42.4,30.9 43.2,30.9 C43.5,30.9 43.8,30.8 44,30.8 C44.8,31 45.7,30.8 46.4,31.4 C47.3,32 48,32.8 48.1,34 C48.1,34.4 48.2,34.8 48.2,35.3 C48.2,35.8 48.1,36.2 47.9,36.6 C47.5,37.3 46.8,37.7 46.2,38.2 C45.6,38.6 45.6,38.8 45.9,39.4 C46.1,39.7 46.3,40.1 46.4,40.4 C47,41.5 47.7,42.7 48.3,43.8 Z M42.1,36.6 C42.2,36.6 42.3,36.7 42.3,36.7 C42.4,36.7 42.5,36.7 42.5,36.8 C43.4,36.9 44.3,36.9 45.2,36.6 C45.6,36.5 45.9,36.3 46,35.9 C46.2,35.3 46.3,34.7 46.2,34.1 C46.1,33.3 45.3,32.7 44.5,32.7 C43.8,32.7 43.2,32.7 42.5,32.7 C42.2,32.7 42.1,32.8 42,32.9 C42.1,34.1 42.1,35.4 42.1,36.6 Z" id="Shape" fill="#1F191A"></path>
                <path d="M35.9,30.9 C36.2,30.9 36.5,30.9 36.7,30.9 C37.2,30.9 37.6,30.9 38.1,30.9 C38.4,30.9 38.7,31 38.7,31.3 C38.7,31.7 38.7,32.2 38.7,32.6 C38.7,32.7 38.6,32.8 38.5,32.9 C37.9,32.9 37.3,33 36.7,32.9 C35.8,32.8 34.9,32.8 34,32.8 C33.6,32.8 33.5,32.8 33.4,33.3 C33.3,33.8 33.3,34.2 33.3,34.7 C33.3,35 33.3,35.4 33.3,35.7 C33.3,36.1 33.5,36.3 33.9,36.4 C34.2,36.4 34.6,36.4 34.9,36.4 C35.4,36.4 35.9,36.4 36.4,36.4 C36.6,37 36.6,37.6 36.6,38.2 C36.3,38.3 36.1,38.5 35.8,38.5 C35,38.5 34.2,38.6 33.4,38.7 C33.2,39.8 33.1,41 33.3,42.2 C33.4,42.2 33.6,42.2 33.7,42.2 C35.1,42.2 36.6,42.2 38,42.3 C38.3,42.3 38.5,42.3 38.8,42.3 C38.8,42.9 38.8,43.5 38.8,44 C38.8,44 38.8,44 38.7,44.1 C37.4,44.3 36,44.3 34.7,44.3 C34.3,44.3 33.9,44.2 33.5,44.2 C33,44.2 32.6,44.2 32.1,44.3 C32,44.3 31.8,44.3 31.7,44.3 C31.5,44.1 31.5,43.9 31.5,43.7 C31.5,43.3 31.4,42.8 31.4,42.4 C31.4,41.7 31.4,41.1 31.5,40.4 C31.5,40.3 31.5,40.1 31.5,40 C31.5,38.3 31.5,36.5 31.5,34.8 C31.5,33.9 31.6,32.9 31.6,32 C31.6,31.8 31.6,31.5 31.6,31.3 C32,31.3 32.4,31.2 32.9,31.2 C33.7,31.2 34.4,31.2 35.2,31.2 C35.5,30.9 35.7,30.7 35.9,30.9 Z" id="Shape" fill="#1F191A"></path>
                <path d="M64.7,43.9 C63.6,44.2 62.9,44.2 62.5,43.9 C62.5,43.3 62.4,42.7 62.4,42 C62.4,41.2 62.5,40.4 62.5,39.5 C62.5,39.2 62.4,39 62.4,38.7 C62.4,38.7 62.4,38.6 62.4,38.6 C62.6,38.3 62.4,38 62.3,37.7 C61.8,36.7 61.3,35.7 60.8,34.7 C60.3,33.8 59.8,33 59.4,32.1 C59.2,31.8 59.1,31.5 58.9,31.1 C59.2,31 59.4,31 59.6,31 C60,31 60.5,31 60.9,31 C61.2,31 61.4,31.1 61.5,31.4 C61.9,32.2 62.2,32.9 62.6,33.7 C62.9,34.3 63.3,34.8 63.6,35.4 C63.6,35.5 63.7,35.5 63.8,35.7 C63.9,35.6 64,35.5 64,35.4 C64.4,34.7 64.7,34 65.1,33.3 C65.4,32.6 65.8,32 66.2,31.3 C66.3,31.2 66.4,31.1 66.4,31 C67.1,31 67.7,30.9 68.4,31.3 C68.4,31.5 68.3,31.6 68.3,31.8 C67.8,32.7 67.3,33.7 66.8,34.6 C66.3,35.5 65.8,36.3 65.4,37.2 C65.2,37.6 65,38 64.9,38.4 C64.8,38.6 64.8,38.7 64.8,38.9 C64.8,39.8 64.8,40.7 64.8,41.6 C64.7,42.3 64.7,43.1 64.7,43.9 Z" id="Shape" fill="#1F191A"></path>
                <path d="M54.4,43.9 C53.8,43.9 53.2,44 52.7,44 C52.3,44 52.2,43.9 52.2,43.5 C52.1,42.8 52.1,42.1 52.2,41.4 C52.3,41 52.2,40.6 52.2,40.3 C52.2,38.7 52.3,37.1 52.3,35.5 C52.3,34.7 52.3,33.8 52.3,33 C51.8,32.8 51.3,32.7 50.7,32.8 C50.2,32.8 49.7,32.7 49.1,32.7 C48.9,32.3 48.9,31.4 49.2,30.9 C52,31 54.9,30.8 57.7,31 C57.8,31.6 57.8,32.2 57.7,32.8 C57.5,32.8 57.4,32.8 57.3,32.8 C56.5,32.8 55.7,32.8 54.9,32.9 C54.5,32.9 54.5,33 54.5,33.4 C54.5,35 54.4,36.5 54.4,38.1 C54.4,39.9 54.4,41.7 54.4,43.5 C54.4,43.6 54.4,43.7 54.4,43.9 Z" id="Shape" fill="#1F191A"></path>
            </g>
        </g>
    </g>
</svg>