<?xml version="1.0" encoding="UTF-8"?>
<svg width="98px" height="12px" viewBox="0 0 98 12" version="1.1" xmlns="http://www.w3.org/2000/svg" xmlns:xlink="http://www.w3.org/1999/xlink">
    <!-- Generator: Sketch 48.2 (47327) - http://www.bohemiancoding.com/sketch -->
    <title>niftygenius</title>
    <desc>Created with Sketch.</desc>
    <defs></defs>
    <g id="Page-1" stroke="none" stroke-width="1" fill="none" fill-rule="evenodd">
        <g id="niftygenius" fill="#000000" fill-rule="nonzero">
            <path d="M64.7,0.7 C65.2,0.7 65.7,0.7 66.2,0.7 C67.7,3.2 69.2,5.8 70.7,8.4 C70.7,8.4 70.8,8.4 70.8,8.4 C70.8,5.9 70.8,3.3 70.8,0.7 C71.3,0.7 71.8,0.7 72.3,0.7 C72.3,4.2 72.3,7.8 72.3,11.3 C71.8,11.3 71.3,11.3 70.8,11.3 C69.3,8.8 67.8,6.2 66.3,3.6 C66.3,3.6 66.2,3.6 66.2,3.6 C66.2,6.1 66.2,8.7 66.2,11.3 C65.7,11.3 65.2,11.3 64.7,11.3 C64.7,7.8 64.7,4.3 64.7,0.7 Z" id="Shape"></path>
            <path d="M2.3,3.6 C2.3,6.1 2.3,8.7 2.3,11.3 C1.8,11.3 1.3,11.3 0.8,11.3 C0.8,7.8 0.8,4.2 0.8,0.7 C1.3,0.7 1.8,0.7 2.3,0.7 C3.8,3.2 5.2,5.8 6.7,8.4 C6.7,8.4 6.8,8.4 6.8,8.4 C6.8,5.9 6.8,3.3 6.8,0.7 C7.4,0.7 7.8,0.7 8.4,0.7 C8.4,4.2 8.4,7.8 8.4,11.3 C7.9,11.3 7.4,11.3 6.9,11.3 C5.4,8.7 3.9,6.2 2.4,3.6 C2.4,3.6 2.4,3.6 2.3,3.6 Z" id="Shape"></path>
            <path d="M52,7.4 C51.2,7.4 50.5,7.4 49.7,7.4 C49.7,6.9 49.7,6.5 49.7,6 C51,6 52.3,6 53.6,6 C53.7,7.1 53.7,8.2 53.3,9.2 C52.6,10.7 51.4,11.5 49.8,11.6 C48,11.7 46.5,11 45.7,9.2 C44.8,7.2 44.7,5.1 45.6,3.1 C46.3,1.4 47.7,0.5 49.5,0.4 C51.1,0.3 52.4,1 53.2,2.5 C53.4,2.9 53.5,3.4 53.8,4 C53.2,4.1 52.7,4.2 52.2,4.3 C52.1,4 52,3.8 52,3.6 C51.4,1.9 49.4,1.3 48,2.6 C47.5,3 47.2,3.6 47,4.2 C46.6,5.6 46.6,7 47.2,8.4 C47.7,9.8 49,10.5 50.4,10.2 C51.4,9.8 52.2,8.8 52,7.4 Z" id="Shape"></path>
            <path d="M89.1,7.7 C89.6,7.6 90.1,7.5 90.6,7.4 C90.7,7.9 90.8,8.3 91,8.7 C91.6,10.2 94,10.7 95.2,9.5 C95.9,8.8 95.8,7.7 94.9,7.2 C94.3,6.9 93.5,6.6 92.9,6.4 C92.2,6.1 91.5,5.9 90.9,5.6 C89.1,4.6 89,2.3 90.7,1.1 C92.1,1.09912079e-14 94.8,0.2 96,1.6 C96.4,2.1 96.6,2.7 97,3.4 C96.3,3.6 95.8,3.7 95.4,3.8 C94.7,2.2 94,1.7 92.5,2 C91.8,2.1 91.3,2.6 91.2,3.2 C91.1,3.8 91.4,4.2 92.1,4.5 C92.9,4.8 93.7,5.1 94.4,5.4 C94.7,5.5 95.1,5.7 95.4,5.8 C96.9,6.5 97.4,7.4 97.2,9 C97,10.2 96,11.3 94.7,11.5 C93.9,11.6 93,11.6 92.2,11.5 C90.3,11.1 89,9.4 89.1,7.7 Z" id="Shape"></path>
            <path d="M62.2,9.9 C62.2,10.4 62.2,10.9 62.2,11.3 C60,11.3 57.9,11.3 55.7,11.3 C55.7,7.7 55.7,4.2 55.7,0.6 C57.9,0.6 60,0.6 62.1,0.6 C62.1,1.1 62.1,1.5 62.1,2 C60.5,2 58.8,2 57.2,2 C57.2,3.1 57.2,4 57.2,5.1 C58.7,5.1 60.2,5.1 61.7,5.1 C61.7,5.6 61.7,6 61.7,6.5 C60.2,6.5 58.7,6.5 57.2,6.5 C57.2,7.7 57.2,8.7 57.2,9.9 C58.9,9.9 60.6,9.9 62.2,9.9 Z" id="Shape"></path>
            <path d="M79.4,0.7 C79.9,0.7 80.3,0.7 80.8,0.7 C80.8,0.9 80.8,1.2 80.8,1.4 C80.8,3.5 80.8,5.6 80.8,7.7 C80.8,8.9 81.3,9.7 82.1,10 C84,10.7 85.4,9.6 85.4,7.7 C85.4,5.6 85.4,3.5 85.4,1.4 C85.4,1.2 85.4,1 85.4,0.7 C85.9,0.7 86.4,0.7 86.9,0.7 C86.9,0.9 86.9,1.1 86.9,1.4 C86.9,3.5 86.8,5.6 86.9,7.7 C87,10.9 84.7,11.9 82.3,11.6 C80.2,11.3 79.2,10.1 79.2,8 C79.2,5.8 79.2,3.5 79.2,1.3 C79.4,1.1 79.4,0.9 79.4,0.7 Z" id="Shape"></path>
            <path d="M15.8,0.7 C18,0.7 20.1,0.7 22.3,0.7 C22.3,1.2 22.3,1.6 22.3,2.1 C20.7,2.1 19,2.1 17.4,2.1 C17.4,3.3 17.4,4.4 17.4,5.6 C18.9,5.6 20.4,5.6 21.9,5.6 C21.9,6.1 21.9,6.5 21.9,6.9 C20.4,6.9 18.9,6.9 17.4,6.9 C17.4,8.4 17.4,9.8 17.4,11.3 C16.9,11.3 16.4,11.3 15.9,11.3 C15.8,7.8 15.8,4.2 15.8,0.7 Z" id="Shape"></path>
            <path d="M32.3,0.7 C32.9,0.7 33.4,0.7 34,0.7 C34.8,2.2 35.7,3.8 36.6,5.5 C37.5,3.9 38.3,2.3 39.2,0.7 C39.7,0.7 40.2,0.7 40.8,0.7 C40.7,1 40.6,1.2 40.5,1.4 C39.5,3.1 38.5,4.8 37.6,6.5 C37.5,6.8 37.4,7.1 37.4,7.4 C37.4,8.7 37.4,10 37.4,11.4 C36.9,11.4 36.4,11.4 35.9,11.4 C35.9,10.1 35.9,8.8 35.9,7.5 C35.9,7.2 35.8,6.8 35.6,6.5 C34.7,4.8 33.7,3.1 32.7,1.4 C32.5,1.1 32.4,0.9 32.3,0.7 Z" id="Shape"></path>
            <path d="M31.3,0.7 C31.3,1.2 31.3,1.6 31.3,2.1 C30.2,2.1 29.2,2.1 28.1,2.1 C28.1,5.2 28.1,8.3 28.1,11.3 C27.6,11.3 27.1,11.3 26.6,11.3 C26.6,8.2 26.6,5.2 26.6,2.1 C25.5,2.1 24.5,2.1 23.4,2.1 C23.4,1.6 23.4,1.1 23.4,0.7 C26,0.7 28.6,0.7 31.3,0.7 Z" id="Shape"></path>
            <path d="M76.8,11.3 C76.3,11.3 75.8,11.3 75.3,11.3 C75.3,7.7 75.3,4.2 75.3,0.7 C75.8,0.7 76.3,0.7 76.8,0.7 C76.8,4.2 76.8,7.7 76.8,11.3 Z" id="Shape"></path>
            <path d="M12.9,11.3 C12.4,11.3 11.9,11.3 11.4,11.3 C11.4,7.7 11.4,4.2 11.4,0.7 C11.9,0.7 12.4,0.7 12.9,0.7 C12.9,4.2 12.9,7.8 12.9,11.3 Z" id="Shape"></path>
        </g>
    </g>
</svg>