<?xml version="1.0" encoding="UTF-8"?>
<svg width="105px" height="14px" viewBox="0 0 105 14" version="1.1" xmlns="http://www.w3.org/2000/svg" xmlns:xlink="http://www.w3.org/1999/xlink">
    <!-- Generator: Sketch 48.2 (47327) - http://www.bohemiancoding.com/sketch -->
    <title>outdoorvoices</title>
    <desc>Created with Sketch.</desc>
    <defs></defs>
    <g id="Page-1" stroke="none" stroke-width="1" fill="none" fill-rule="evenodd">
        <g id="outdoorvoices" fill="#000000" fill-rule="nonzero">
            <path d="M49,5.2 C46.8,5.2 45.1,7 45.1,9.1 C45.1,11.3 46.8,13 49,13 C51.2,13 53,11.3 53,9.1 C52.9,7 51.2,5.2 49,5.2 Z M49,11.5 C47.6,11.5 46.8,10.4 46.8,9.1 C46.8,7.8 47.6,6.7 49,6.7 C50.4,6.7 51.3,7.8 51.3,9.1 C51.3,10.4 50.4,11.5 49,11.5 Z" id="Shape"></path>
            <path d="M40.1,5.2 C37.9,5.2 36.2,7 36.2,9.1 C36.2,11.3 37.9,13 40.1,13 C42.3,13 44.1,11.3 44.1,9.1 C44.1,7 42.3,5.2 40.1,5.2 Z M40.1,11.5 C38.7,11.5 37.9,10.4 37.9,9.1 C37.9,7.8 38.7,6.7 40.1,6.7 C41.5,6.7 42.4,7.8 42.4,9.1 C42.4,10.4 41.5,11.5 40.1,11.5 Z" id="Shape"></path>
            <path d="M33.1,6.4 C32.5,5.5 31.6,5.2 30.8,5.2 C28.7,5.2 27.3,7 27.3,9.1 C27.3,11.3 28.6,13 30.8,13 C31.7,13 32.5,12.7 33.1,11.9 L33.1,12.8 L34.8,12.8 L34.8,1.1 L33.1,1.1 L33.1,6.4 Z M31.1,11.5 C29.8,11.5 29,10.3 29,9.1 C29,7.9 29.8,6.7 31.1,6.7 C32.4,6.7 33.2,7.8 33.2,9.1 C33.2,10.4 32.4,11.5 31.1,11.5 Z" id="Shape"></path>
            <path d="M6.9,0.9 C3.5,0.9 0.8,3.6 0.8,7 C0.8,10.4 3.5,13.1 6.9,13.1 C10.3,13.1 13,10.4 13,7 C13,3.6 10.3,0.9 6.9,0.9 Z M6.9,11.4 C4.5,11.4 2.5,9.4 2.5,7 C2.5,4.6 4.5,2.6 6.9,2.6 C9.3,2.6 11.3,4.6 11.3,7 C11.3,9.4 9.3,11.4 6.9,11.4 Z" id="Shape"></path>
            <path d="M19.1,9.7 C19.1,10.9 18.6,11.6 17.6,11.6 C16.6,11.6 16.1,11 16.1,9.7 L16.1,5.4 L14.4,5.4 L14.4,9.7 C14.4,10.3 14.5,10.8 14.6,11.2 C15,12.4 16,13 17.2,13 C18.2,13 18.8,12.5 19.1,11.9 L19.1,12.7 L20.8,12.7 L20.8,5.3 L19.1,5.3 L19.1,9.7 Z" id="Shape"></path>
            <path d="M24.6,3 L22.9,3 L22.9,5.4 L22.3,5.4 L22.3,7 L22.9,7 L22.9,10.2 C22.9,11.1 23.1,11.8 23.4,12.2 C23.9,12.7 24.5,13 25.3,13 C25.6,13 26,12.9 26.5,12.7 L26.5,11 L26.3,11.1 C25.9,11.3 25.6,11.4 25.4,11.4 C25.1,11.4 24.9,11.3 24.8,11.1 C24.7,10.9 24.6,10.5 24.6,9.9 L24.6,7 L26.5,7 L26.5,5.4 L24.6,5.4 L24.6,3 Z" id="Shape"></path>
            <path d="M56,6.2 L56,5.5 L54.3,5.5 L54.3,12.9 L56,12.9 L56,9 C56,7.7 56.5,7 57.6,7 C58,7 58.3,7.1 58.6,7.3 L58.6,5.5 C58.4,5.3 58.1,5.2 57.6,5.2 C56.9,5.2 56.4,5.6 56,6.2 Z" id="Shape"></path>
            <g id="Group" transform="translate(61.000000, 1.000000)">
                <polygon id="Shape" points="10.5 0.1 6.6 10 2.8 0.1 0.8 0.1 5.6 11.9 7.7 11.9 12.4 0.1"></polygon>
                <path d="M14.8,4.2 C12.6,4.2 10.9,6 10.9,8.1 C10.9,10.3 12.6,12 14.8,12 C17,12 18.8,10.3 18.8,8.1 C18.8,6 17.1,4.2 14.8,4.2 Z M14.8,10.5 C13.4,10.5 12.6,9.4 12.6,8.1 C12.6,6.8 13.4,5.7 14.8,5.7 C16.2,5.7 17.1,6.8 17.1,8.1 C17.1,9.4 16.3,10.5 14.8,10.5 Z" id="Shape"></path>
                <circle id="Oval" cx="21" cy="1.4" r="1.2"></circle>
                <path d="M23.2,8.2 C23.2,10.5 25,12.1 27.2,12.1 C27.9,12.1 28.6,12 29.3,11.5 L29.3,9.6 C28.7,10.2 28.2,10.5 27.2,10.5 C25.9,10.5 25,9.5 25,8.2 C25,6.9 25.9,5.8 27.3,5.8 C28.3,5.8 28.9,6.1 29.4,6.7 L29.4,4.8 C28.8,4.4 28.1,4.3 27.3,4.3 C24.9,4.2 23.2,5.8 23.2,8.2 Z" id="Shape"></path>
                <path d="M34,4.2 C31.8,4.2 30.4,5.9 30.4,8.1 C30.4,10.2 31.6,12 34.1,12 C35.6,12 36.3,11.6 36.8,11.1 L36.8,9.2 C36.2,9.9 35.3,10.5 34.3,10.5 C33,10.5 32.3,9.7 32.2,8.5 L37.5,8.5 L37.5,8.1 C37.5,6 36.4,4.2 34,4.2 Z M32.3,7.2 C32.5,6.4 33.2,5.8 34,5.8 C34.9,5.8 35.5,6.3 35.7,7.2 L32.3,7.2 Z" id="Shape"></path>
                <path d="M41.4,7.2 C40.7,6.9 40.4,6.7 40.4,6.3 C40.4,5.9 40.8,5.7 41.4,5.7 C42,5.7 42.6,5.9 43.3,6.5 L43.3,4.7 C42.9,4.4 42.3,4.1 41.3,4.1 C40,4.1 38.9,4.9 38.9,6.3 C38.9,7.3 39.4,7.8 40.4,8.2 L41.4,8.7 C41.9,8.9 42.1,9.2 42.1,9.6 C42.1,10.1 41.7,10.3 40.9,10.3 C40.2,10.3 39.4,9.8 38.8,9 L38.8,11.1 C39.4,11.6 40,11.9 41.2,11.9 C42.8,11.9 43.8,10.9 43.8,9.4 C43.7,8.3 42.8,7.8 41.4,7.2 Z" id="Shape"></path>
                <rect id="Rectangle-path" x="20.1" y="4.4" width="1.7" height="7.4"></rect>
            </g>
        </g>
    </g>
</svg>