<?xml version="1.0" encoding="UTF-8"?>
<svg width="21px" height="33px" viewBox="0 0 21 33" version="1.1" xmlns="http://www.w3.org/2000/svg" xmlns:xlink="http://www.w3.org/1999/xlink">
    <!-- Generator: Sketch 48.2 (47327) - http://www.bohemiancoding.com/sketch -->
    <title>r13</title>
    <desc>Created with Sketch.</desc>
    <defs></defs>
    <g id="Page-1" stroke="none" stroke-width="1" fill="none" fill-rule="evenodd">
        <g id="r13" fill="#000000" fill-rule="nonzero">
            <g id="Group">
                <path d="M20.6,12.7 C20.7,12.8 20.6,12.5 20.5,12.6 C20.5,12.6 20.4,12.4 20.5,12.5 C20.5,12.3 20.2,12.2 20.2,12.1 C20.4,12.2 19.8,11.9 20,12 C19.9,12 19.6,12 19.5,12 C19.6,12 19.7,12 19.7,12 C18.9,11.8 18.6,12.4 18.6,12.9 C18.6,13 18.6,13 18.6,13.1 C18.6,12.9 18.5,13.2 18.5,13.2 C18.5,13.4 18.5,13.7 18.5,13.9 C18.5,14.4 18.4,15.1 18.5,15.6 C18.5,14.8 18.5,14 18.5,13.2 C18.6,13.4 18.5,15.7 18.5,15.7 C18.5,15.7 18.5,16 18.5,16 C18.5,16.2 18.6,15.7 18.5,15.7 C18.4,15.9 18.5,16.1 18.5,16.3 C18.5,15.8 18.4,16.9 18.5,16.6 C18.4,16.8 18.4,17 18.4,17.2 C18.4,17 18.4,17.2 18.4,17.3 C18.4,17.4 18.3,17.5 18.2,17.6 C18.1,17.8 18,17.9 17.8,18 C17.7,18 17.2,18.2 17.4,18.2 C17.3,18.3 17.1,18.3 17,18.2 C17.2,18.2 16.7,18.1 16.9,18.2 C16.8,18.3 16.5,17.9 16.4,17.8 C16.3,17.7 16.2,17.5 16.1,17.4 C16.1,17.4 16,17.2 16.1,17.3 C16.1,17.2 16.1,17 16,17.2 C16,17.1 15.9,17 16,16.9 C16,17 16,16.4 16,16.3 C16,16.4 16,16.5 16,16.6 C15.8,16.4 15.9,15.7 15.9,15.4 C15.9,15.1 15.8,14.4 15.9,14.1 C15.9,14 15.9,13.9 15.9,13.8 C15.9,13.9 15.9,13.9 15.9,14 C15.9,13.9 16,13.4 15.9,13.3 C15.9,13.3 15.9,13.3 15.9,13.4 C15.9,13.4 15.9,13.1 15.9,13.3 C16,13 15.7,12.3 15.7,12.3 C15.6,12.2 15.6,12.2 15.6,12.1 C15.6,12.2 15.5,11.7 15.4,11.6 C15.3,11.5 15.1,11.3 15.1,11.3 C15.2,11.3 14.8,11 14.7,10.9 C14.5,10.7 14.1,10.5 13.9,10.5 C14,10.5 13.8,10.5 13.9,10.5 C13.7,10.4 13.6,10.4 13.4,10.3 C13.7,10.4 13.2,10.3 13.2,10.3 C13.2,10.3 13.2,10.3 13.3,10.3 C13.3,10.3 13.1,10.2 13.2,10.3 C13.1,10.3 13.1,10.3 13,10.3 C13.1,10.2 13.9,10.1 14.1,10 C14.3,9.9 14.5,9.8 14.6,9.8 C14.6,9.8 14.8,9.7 14.6,9.8 C14.9,9.8 15.3,9.5 15.6,9.4 C15.7,9.3 15.8,9.2 16,9.1 C16,9.1 16.2,8.9 16.1,9 C16.1,8.9 16.2,8.8 16.3,8.8 C16.2,8.9 16.6,8.5 16.6,8.4 C16.7,8.3 16.9,7.9 16.8,8 C16.8,7.9 16.8,7.9 16.9,7.9 C16.9,8 16.9,7.9 17,7.8 C16.9,7.9 17.1,7.6 17,7.7 C17,7.7 17.1,7.5 17,7.6 C17,7.6 17,7.5 17,7.5 C17,7.5 17,7.5 17,7.5 C17.1,7.5 17.1,7.3 17.1,7.3 C17,7.5 17.1,7.1 17.2,7 C17.2,7.2 17.3,6.6 17.3,6.5 C17.3,6.3 17.4,6 17.4,5.8 C17.4,5.7 17.3,5.1 17.3,5.1 C17.3,5.3 17.2,4.4 17.2,4.6 C17.1,4.5 17.1,4.4 17.1,4.3 C17.2,4.5 17,3.9 17,4 C17,3.8 16.8,3.4 16.7,3.3 C16.6,3.2 16.5,3.1 16.4,2.9 C16.4,2.9 16.2,2.7 16.3,2.8 C16.2,2.8 16.2,2.7 16.1,2.6 C16.1,2.6 15.7,2.2 15.6,2.1 C15.4,1.9 14.9,1.5 14.6,1.6 C14.7,1.6 14.3,1.5 14.4,1.5 C14.3,1.5 14.2,1.5 14.1,1.4 C14.3,1 14,1 14,1 C14.2,1.1 13.9,1 13.9,1 C14.1,0.9 13.5,0.9 13.8,0.9 C13.7,0.9 13.6,0.9 13.6,0.9 C13.8,0.9 13.3,0.7 13.1,0.8 C13.2,0.8 13.1,0.8 13.1,0.8 C13.1,0.8 13.1,0.8 13.1,0.8 C13,0.8 12.4,0.7 12.6,0.7 C12.6,0.7 12,0.6 11.9,0.6 C12,0.6 11.6,0.6 11.6,0.6 C11.2,0.6 10.9,0.6 10.5,0.6 C10.2,0.6 9.8,0.5 9.5,0.6 C9.5,0.6 9.6,0.6 9.6,0.6 C9.2,0.6 8.8,0.6 8.5,0.7 C8.2,0.7 7.8,0.6 7.5,0.7 C7.5,0.7 7.6,0.7 7.6,0.7 C7.4,0.7 7.2,0.6 7,0.7 C7,0.7 7.1,0.7 7.1,0.7 C6.9,0.7 6.6,0.6 6.4,0.7 C6.4,0.7 6.5,0.7 6.5,0.7 C6.1,0.7 5.7,0.6 5.3,0.7 C5.4,0.7 5.5,0.7 5.7,0.7 C5.7,0.8 4.4,0.7 4.4,0.7 C4.5,0.7 4.6,0.7 4.7,0.7 C4.2,0.6 3.5,0.6 3,0.6 C3,0.6 3,0.6 3.1,0.6 C2.9,0.5 2.3,0.5 2,0.5 C1.5,0.4 0.8,0.5 0.5,1 C0.2,1.7 0.7,2.3 1.4,2.3 C2,2.3 2.4,2.1 3,2.2 C3.1,2.2 3.6,2.4 3.7,2.7 C4,3.1 3.9,3.6 4.1,4.1 C4.1,4.1 4.1,4 4.1,4 C4.1,6.1 4.1,8.2 4.1,10.3 C4.1,11.3 4.1,12.4 4.1,13.4 C4.1,13.9 4.1,14.4 4.1,14.8 C4.1,15.1 4.1,15.3 4.1,15.6 C4.1,15.7 4.1,16.2 4.1,15.9 C4.1,16 4,16.8 4,16.8 C3.6,17.8 3,17.9 2.1,17.8 C1.3,17.7 0.4,17.7 0.4,18.7 C0.5,19.7 1.6,19.7 2.3,19.5 C2.5,19.5 2.8,19.4 3,19.4 C3.2,19.4 3.6,19.4 3.8,19.3 C3.7,19.3 4.1,19.3 4.2,19.3 C4.4,19.3 4.6,19.3 4.8,19.3 C5.4,19.3 6,19.3 6.5,19.4 C7.4,19.5 8.3,19.8 9.2,19.7 C9.9,19.6 10.3,19.2 10.2,18.5 C10.1,17.8 9.4,17.7 8.8,17.8 C8.4,17.8 7.9,18 7.5,17.8 C6.9,17.6 6.7,17.1 6.5,16.5 C6.5,16.5 6.5,16.5 6.5,16.5 C6.6,16.4 6.5,16 6.5,15.9 C6.5,15.5 6.5,15 6.5,14.6 C6.5,13.6 6.4,12.5 6.5,11.6 C6.7,10.6 7.5,10.8 8.3,10.8 C8.9,10.8 9.5,10.8 10,10.8 C10.1,10.8 10.8,10.8 10.5,10.8 C10.8,10.9 11.2,10.8 11.6,10.9 C12,11 12.6,11.1 12.9,11.4 C13.2,11.7 13.4,12.1 13.5,12.5 C13.6,12.8 13.5,13.3 13.6,13.6 C13.7,13.2 13.6,13.9 13.6,13.9 C13.6,14.1 13.6,14.4 13.6,14.6 C13.6,15.2 13.6,15.7 13.6,16.3 C13.6,17 13.6,17.6 13.9,18.2 C14.5,19.5 16.2,20 17.5,19.8 C18.3,19.6 19,19.4 19.6,18.8 C20.3,18 20.4,17.2 20.4,16.2 C20.4,15.6 20.4,15 20.4,14.4 C20.4,14.1 20.4,13.7 20.4,13.4 C20.6,13.2 20.6,12.9 20.6,12.7 Z M17.3,4.9 C17.3,5 17.3,5.1 17.3,5.2 C17.3,5.2 17.3,5 17.3,4.9 Z M17.3,5.5 C17.3,5.6 17.3,5.7 17.3,5.8 C17.3,5.7 17.3,5.6 17.3,5.5 Z M12.3,0.7 C12.2,0.7 12.2,0.7 12.1,0.7 C12.2,0.7 12.3,0.7 12.3,0.7 Z M13,8.5 C13,8.7 11.8,8.8 11.6,8.8 C11.3,8.9 10.9,8.8 10.6,8.9 C10.7,8.9 10.7,8.9 10.7,8.9 C10.1,8.9 9.5,8.9 8.9,8.9 C8.3,8.9 7.7,9 7.1,8.9 C6.1,8.7 6.5,7.2 6.5,6.4 C6.5,5.5 6.3,4.3 6.6,3.5 C6.9,2.7 7.4,2.6 8.1,2.4 C8.1,2.4 8.4,2.3 8.5,2.3 C8.8,2.3 9.2,2.3 9.5,2.2 C9.2,2.2 9.7,2.2 9.7,2.2 C10.1,2.2 10.4,2.2 10.8,2.2 C11.3,2.2 11.9,2.2 12.4,2.4 C12.8,2.5 13.4,2.7 13.7,2.9 C14.4,3.4 14.6,3.9 14.9,4.7 C14.9,4.7 14.9,4.7 14.9,4.7 C14.9,5 15,5.4 15,5.7 C15,6 14.9,6.4 14.8,6.6 C14.6,7.5 13.9,8.2 13,8.5 Z M16,13.1 C16,13.1 16,13.2 16,13.2 C15.9,13.2 15.9,13.1 16,13.1 Z M16,16.4 C16,16.5 16,16.5 16,16.6 C16,16.5 16,16.5 16,16.4 Z" id="Shape"></path>
                <path d="M10.5,0.6 C10.6,0.6 11.5,0.6 11.5,0.6 C11.4,0.6 10.5,0.7 10.5,0.6 Z" id="Shape"></path>
                <path d="M10.2,0.6 C10.2,0.6 10.5,0.6 10.5,0.6 C10.5,0.6 10.2,0.6 10.2,0.6 Z" id="Shape"></path>
                <path d="M20.6,12.8 C20.6,12.8 20.6,12.9 20.6,12.9 C20.7,12.8 20.6,12.8 20.6,12.8 Z" id="Shape"></path>
                <path d="M10,0.6 C10,0.6 10.2,0.6 10.2,0.6 C9.2,0.6 10,0.5 10,0.6 Z" id="Shape"></path>
                <path d="M1.8,0.6 C1.7,0.6 1.7,0.6 1.6,0.6 C1.7,0.6 1.7,0.6 1.8,0.6 Z" id="Shape"></path>
                <path d="M11.5,0.6 C11.6,0.6 11.6,0.6 11.7,0.6 C11.7,0.5 11.4,0.5 11.5,0.6 Z" id="Shape"></path>
                <path d="M20.6,13.2 C20.6,13.2 20.6,13.5 20.6,13 C20.6,13.1 20.6,13.1 20.6,13.2 Z" id="Shape"></path>
                <path d="M20.6,13.3 C20.6,13.3 20.6,13.5 20.6,13.5 C20.6,12.5 20.7,13.4 20.6,13.3 Z" id="Shape"></path>
                <path d="M20.6,13.5 C20.6,13.5 20.6,13.6 20.6,13.6 C20.7,13.6 20.6,13.5 20.6,13.5 Z" id="Shape"></path>
                <path d="M11.7,0.6 C11.8,0.6 11.8,0.6 11.9,0.6 C11.7,0.6 11.7,0.6 11.7,0.6 Z" id="Shape"></path>
                <path d="M20.6,13.2 C20.6,13.2 20.6,13.3 20.6,13.3 C20.7,13.2 20.7,13.2 20.6,13.2 Z" id="Shape"></path>
                <path d="M4.2,16 C4.2,13.9 4.2,11.9 4.2,9.8 C4.2,8.8 4.2,7.8 4.2,6.8 C4.2,6.3 4.2,5.8 4.2,5.3 C4.2,5.2 4.3,4.3 4.2,4.2 C4.1,8.2 4.1,12.1 4.2,16 C4.2,16.1 4.2,16 4.2,16 Z" id="Shape"></path>
                <path d="M6.5,11.8 C6.5,12.5 6.5,13.2 6.5,13.9 C6.5,14.2 6.5,14.6 6.5,14.9 C6.5,15.1 6.4,15.6 6.5,15.8 C6.5,14.4 6.5,13.1 6.5,11.7 C6.5,11.7 6.5,11.8 6.5,11.8 Z" id="Shape"></path>
                <path d="M10.3,10.8 C9.7,10.8 9.2,10.8 8.6,10.8 C8.3,10.8 7.5,10.6 7.2,10.8 C8.2,10.9 9.4,10.8 10.3,10.8 Z" id="Shape"></path>
                <path d="M20.6,13.6 C20.6,13.8 20.6,15.4 20.6,15.4 C20.6,14.9 20.5,14.1 20.6,13.6 Z" id="Shape"></path>
                <path d="M13.7,16.5 C13.7,15.9 13.7,15.4 13.7,14.8 C13.7,15.4 13.8,16.1 13.7,16.5 Z" id="Shape"></path>
                <path d="M13.7,13.9 C13.7,14 13.7,14.6 13.7,14.8 C13.8,14.7 13.7,14.1 13.7,13.9 Z" id="Shape"></path>
                <path d="M8.4,18 C8.4,18 8.2,18 8.2,18 C8,18 7.8,18 7.6,18 C7.8,18 8.1,18 8.4,18 Z" id="Shape"></path>
                <path d="M20.6,16.5 C20.6,16.5 20.6,16.6 20.6,16.6 C20.6,16.4 20.6,16.2 20.6,16.1 C20.5,16.1 20.6,16.5 20.6,16.5 Z" id="Shape"></path>
                <path d="M9.5,17.9 C9.3,17.9 9.2,17.9 9,17.9 C9.2,17.9 9.3,17.9 9.5,17.9 Z" id="Shape"></path>
                <path d="M2.8,18 C2.8,18 2.9,18 2.9,18 C2.8,17.9 2.5,18 2.4,18 C2.6,18 2.7,18.1 2.8,18 Z" id="Shape"></path>
                <path d="M18.2,19.7 C18.1,19.7 17.9,19.7 17.8,19.8 C17.9,19.8 18.1,19.7 18.2,19.7 Z" id="Shape"></path>
                <path d="M10.2,19 C10.2,18.9 10.2,18.7 10.2,18.6 C10.2,18.7 10.2,18.9 10.2,19 Z" id="Shape"></path>
                <path d="M13.7,13.2 C13.7,13.1 13.7,13 13.7,12.9 C13.7,12.9 13.7,12.9 13.7,12.9 C13.6,12.8 13.7,13.3 13.7,13.2 Z" id="Shape"></path>
                <path d="M7.4,19.6 C7.3,19.6 7.2,19.5 7.1,19.6 C7.2,19.6 7.3,19.6 7.4,19.6 Z" id="Shape"></path>
                <path d="M11.1,10.9 C11.2,10.9 11.3,10.9 11.4,10.9 C11.4,10.9 11.1,10.8 11.1,10.9 Z" id="Shape"></path>
                <path d="M8.9,19.8 C9,19.8 9.1,19.8 9.2,19.8 C9.1,19.8 9,19.8 8.9,19.8 Z" id="Shape"></path>
                <path d="M1.5,17.9 C1.5,17.9 1.3,17.9 1.2,17.9 C1.3,17.9 1.4,17.9 1.5,17.9 Z" id="Shape"></path>
                <path d="M2.8,2.4 C2.8,2.4 2.9,2.4 2.9,2.4 C2.7,2.4 2.7,2.4 2.8,2.4 Z" id="Shape"></path>
                <path d="M20.6,15.4 C20.6,15.4 20.5,15.8 20.6,15.9 C20.6,15.8 20.6,15.4 20.6,15.4 Z" id="Shape"></path>
                <path d="M19.5,19 C19.6,18.9 19.7,18.9 19.7,18.8 C19.7,18.9 19.6,18.9 19.5,19 Z" id="Shape"></path>
                <path d="M1.4,19.8 C1.5,19.8 1.6,19.8 1.7,19.8 C1.6,19.8 1.5,19.8 1.4,19.8 Z" id="Shape"></path>
                <path d="M13.7,13.6 C13.7,13.5 13.7,13.9 13.7,13.9 C13.8,13.8 13.8,13.8 13.7,13.6 Z" id="Shape"></path>
                <path d="M10.6,10.8 C10.5,10.8 10.4,10.8 10.3,10.8 C10.3,10.8 10.3,10.8 10.3,10.8 C10.4,10.9 10.5,10.9 10.6,10.8 Z" id="Shape"></path>
                <path d="M13.6,12.9 C13.6,12.8 13.6,12.7 13.5,12.6 C13.6,12.7 13.6,12.9 13.6,12.9 Z" id="Shape"></path>
                <path d="M4.1,16.7 C4.1,16.7 4,17 4,17 C4.1,16.9 4.1,16.8 4.1,16.7 Z" id="Shape"></path>
                <path d="M8.6,17.9 C8.7,17.9 8.4,17.8 8.4,17.9 C8.5,18 8.6,17.9 8.6,17.9 Z" id="Shape"></path>
                <path d="M15.6,19.6 C15.6,19.6 15.5,19.5 15.4,19.5 C15.5,19.6 15.5,19.6 15.6,19.6 Z" id="Shape"></path>
                <path d="M0.8,0.8 C0.7,0.8 0.7,0.9 0.6,1 C0.7,1 0.8,0.9 0.8,0.8 Z" id="Shape"></path>
                <path d="M3.2,17.9 C3.1,17.9 3.1,17.9 3,18 C3.2,18 3.3,17.9 3.2,17.9 Z" id="Shape"></path>
                <path d="M3.2,17.9 C3.3,17.9 3.3,17.9 3.4,17.8 C3.4,17.8 3.2,17.9 3.2,17.9 Z" id="Shape"></path>
                <path d="M6.8,17.3 C6.8,17.2 6.7,17.2 6.7,17.1 C6.7,17.2 6.7,17.3 6.8,17.3 Z" id="Shape"></path>
                <path d="M4.8,19.5 C4.9,19.5 5,19.5 5.1,19.5 C4.9,19.5 4.9,19.4 4.8,19.5 Z" id="Shape"></path>
                <path d="M12.7,11.3 C12.7,11.2 12.6,11.2 12.5,11.2 C12.6,11.2 12.6,11.3 12.7,11.3 Z" id="Shape"></path>
                <path d="M2.4,18 C2.3,17.9 2.3,17.9 2.2,17.9 C2.2,18 2.3,18 2.4,18 Z" id="Shape"></path>
                <path d="M2.6,2.4 C2.5,2.4 2.9,2.4 2.8,2.4 C2.7,2.4 2.7,2.4 2.6,2.4 Z" id="Shape"></path>
                <path d="M2.6,2.4 C2.7,2.4 2.7,2.4 2.8,2.4 C2.3,2.3 2.5,2.4 2.6,2.4 Z" id="Shape"></path>
                <path d="M0.9,18 C1,18 1,18 1.1,18 C1,17.9 1,17.9 0.9,18 Z" id="Shape"></path>
                <path d="M18.7,19.5 C18.8,19.5 18.8,19.5 18.9,19.4 C18.8,19.5 18.7,19.5 18.7,19.5 Z" id="Shape"></path>
                <path d="M5.8,19.5 C5.9,19.5 6,19.5 6.1,19.5 C6,19.4 5.9,19.5 5.8,19.5 Z" id="Shape"></path>
                <path d="M14.6,19 C14.6,19 14.7,19.1 14.7,19.1 C14.7,19.1 14.7,19 14.6,19 Z" id="Shape"></path>
                <path d="M4.1,16.7 C4.1,16.7 4.1,16.6 4.1,16.5 C4.1,16.6 4,16.7 4.1,16.7 Z" id="Shape"></path>
                <path d="M20.6,16.8 C20.6,16.8 20.6,16.7 20.6,16.7 C20.5,16.7 20.6,16.7 20.6,16.8 Z" id="Shape"></path>
                <path d="M20.5,16.6 C20.5,16.6 20.5,16.5 20.5,16.5 C20.5,16.6 20.5,16.6 20.5,16.6 Z" id="Shape"></path>
                <path d="M4,17.1 C4,17.1 4,17.2 3.9,17.2 C4,17.2 4,17.2 4,17.1 Z" id="Shape"></path>
                <path d="M0.5,18.7 C0.5,18.6 0.5,18.6 0.5,18.5 C0.5,18.5 0.5,18.5 0.5,18.7 C0.5,18.5 0.5,18.6 0.5,18.7 Z" id="Shape"></path>
                <path d="M6.5,16.4 C6.5,16.3 6.5,16.3 6.5,16.2 C6.5,16.3 6.5,16.3 6.5,16.4 Z" id="Shape"></path>
                <path d="M16.6,19.8 C16.7,19.8 16.7,19.8 16.8,19.8 C16.7,19.8 16.6,19.8 16.6,19.8 Z" id="Shape"></path>
                <path d="M20.6,15.9 C20.6,16 20.6,16 20.6,16.1 C20.6,16.1 20.6,16.1 20.6,16.1 C20.6,15.2 20.6,15.9 20.6,15.9 Z" id="Shape"></path>
                <path d="M2.6,2.4 C2.5,2.4 2.5,2.4 2.4,2.4 C2.5,2.4 2.6,2.4 2.6,2.4 Z" id="Shape"></path>
                <path d="M3.2,2.5 C3.2,2.5 3.3,2.5 3.3,2.6 C3.3,2.5 3.3,2.5 3.2,2.5 Z" id="Shape"></path>
                <path d="M13.3,11.9 C13.3,12 13.3,12 13.4,12.1 C13.4,12 13.4,11.9 13.3,11.9 Z" id="Shape"></path>
                <path d="M12.9,11.4 C12.9,11.4 13,11.5 13,11.5 C13,11.5 13,11.4 12.9,11.4 Z" id="Shape"></path>
                <path d="M1.3,2.5 C1.4,2.5 1.4,2.5 1.5,2.5 C1.4,2.5 1.3,2.5 1.3,2.5 Z" id="Shape"></path>
                <path d="M13.7,16.6 C13.6,16.6 13.6,16.6 13.7,16.8 C13.7,16.7 13.7,16.6 13.7,16.6 Z" id="Shape"></path>
                <path d="M10.8,10.9 C10.9,10.9 10.9,10.9 11,10.9 C11,10.8 10.9,10.8 10.8,10.9 Z" id="Shape"></path>
                <path d="M1.5,17.9 C1.6,17.9 1.6,17.9 1.7,17.9 C1.5,17.8 1.4,17.8 1.5,17.9 Z" id="Shape"></path>
                <path d="M0.5,18.7 C0.5,18.7 0.5,19 0.5,18.9 C0.5,18.8 0.5,18.8 0.5,18.7 Z" id="Shape"></path>
                <path d="M4.4,19.5 C4.5,19.5 4.5,19.5 4.6,19.5 C4.5,19.5 4.4,19.5 4.4,19.5 Z" id="Shape"></path>
                <path d="M6.3,19.5 C6.4,19.5 6.4,19.5 6.5,19.5 C6.4,19.5 6.3,19.5 6.3,19.5 Z" id="Shape"></path>
                <path d="M17.4,19.8 C17.5,19.8 17.5,19.8 17.6,19.8 C17.5,19.8 17.4,19.8 17.4,19.8 Z" id="Shape"></path>
                <path d="M4.1,19.5 C4.2,19.5 4.2,19.5 4.3,19.5 C4.2,19.5 4.1,19.5 4.1,19.5 Z" id="Shape"></path>
                <path d="M2,17.9 C1.9,17.9 1.9,17.9 1.8,17.9 C1.9,17.9 1.9,17.9 2,17.9 Z" id="Shape"></path>
                <path d="M13.7,16.9 C13.7,17 13.7,17 13.7,17.1 C13.8,17 13.8,17 13.7,16.9 Z" id="Shape"></path>
                <path d="M6.6,19.5 C6.6,19.5 6.7,19.5 6.7,19.5 C6.6,19.5 6.6,19.5 6.6,19.5 Z" id="Shape"></path>
                <path d="M3.8,19.5 C3.8,19.6 3.9,19.6 3.8,19.5 C3.9,19.5 3.8,19.5 3.8,19.5 Z" id="Shape"></path>
                <path d="M6.8,19.5 C6.8,19.5 6.9,19.5 6.9,19.5 C6.9,19.5 6.8,19.5 6.8,19.5 Z" id="Shape"></path>
                <path d="M3.6,19.6 C3.6,19.6 3.7,19.6 3.7,19.6 C3.7,19.6 3.6,19.6 3.6,19.6 Z" id="Shape"></path>
                <path d="M3.4,19.6 C3.4,19.6 3.5,19.6 3.5,19.6 C3.5,19.6 3.4,19.6 3.4,19.6 Z" id="Shape"></path>
                <path d="M3.2,19.6 C3.2,19.6 3.3,19.6 3.3,19.6 C3.2,19.6 3.2,19.6 3.2,19.6 Z" id="Shape"></path>
                <path d="M3,19.7 C3,19.7 3.1,19.7 3.1,19.7 C3,19.6 3,19.6 3,19.7 Z" id="Shape"></path>
                <path d="M2.8,19.7 C2.8,19.7 2.9,19.7 2.9,19.7 C2.8,19.7 2.8,19.7 2.8,19.7 Z" id="Shape"></path>
                <path d="M7.8,19.7 C7.8,19.7 7.9,19.7 7.9,19.7 C7.9,19.7 7.9,19.7 7.8,19.7 Z" id="Shape"></path>
                <path d="M2.5,19.7 C2.5,19.7 2.6,19.7 2.6,19.7 C2.6,19.7 2.6,19.7 2.5,19.7 Z" id="Shape"></path>
                <path d="M13.7,13.2 C13.7,13.2 13.7,13.2 13.7,13.3 C13.7,13.3 13.7,13.3 13.7,13.2 Z" id="Shape"></path>
                <path d="M1.9,19.8 C1.9,19.8 2,19.8 2,19.8 C2,19.8 1.9,19.8 1.9,19.8 Z" id="Shape"></path>
                <path d="M2.3,19.7 C2.3,19.7 2.4,19.7 2.4,19.7 C2.4,19.7 2.4,19.7 2.3,19.7 Z" id="Shape"></path>
                <path d="M8.4,19.8 C8.4,19.8 8.5,19.8 8.5,19.8 C8.5,19.7 8.5,19.8 8.4,19.8 Z" id="Shape"></path>
                <path d="M2.1,19.8 C2.1,19.8 2.2,19.8 2.2,19.8 C2.2,19.8 2.1,19.7 2.1,19.8 Z" id="Shape"></path>
                <path d="M4.1,3.9 C4.1,3.9 4.1,4 4.1,4 C4.1,4 4.1,4 4.1,3.9 Z" id="Shape"></path>
                <path d="M4.1,16.3 C4.1,16.3 4.1,16.4 4.1,16.4 C4.1,16.4 4.1,16.4 4.1,16.3 Z" id="Shape"></path>
                <path d="M1.7,2.5 C1.7,2.5 1.8,2.5 1.8,2.5 C1.8,2.5 1.7,2.5 1.7,2.5 Z" id="Shape"></path>
                <path d="M2.1,2.4 C2.1,2.4 2.2,2.4 2.2,2.4 C2.2,2.4 2.2,2.4 2.1,2.4 Z" id="Shape"></path>
                <path d="M11.1,10.9 C11.1,10.9 11,10.9 11,10.9 C11.1,10.9 11.1,10.9 11.1,10.9 Z" id="Shape"></path>
                <path d="M8.6,17.9 C8.6,17.9 8.7,17.9 8.7,17.9 C8.7,17.9 8.6,17.9 8.6,17.9 Z" id="Shape"></path>
                <path d="M0.5,18.7 C0.5,18.6 0.4,18.9 0.5,18.6 C0.4,18.7 0.4,18.7 0.5,18.7 Z" id="Shape"></path>
                <path d="M6.5,3.9 C6.6,3.9 6.3,8.1 6.5,8.4 C6.5,6.9 6.5,5.4 6.5,3.9 Z" id="Shape"></path>
                <path d="M7.2,9 C7.4,9 10.4,9 10.4,9 C9.3,9 8.2,9 7,9 C7.1,9 7.1,9 7.2,9 Z" id="Shape"></path>
                <path d="M4.7,0.8 C4.9,0.8 5.1,0.8 5.3,0.8 C5.1,0.8 4.9,0.8 4.7,0.8 Z" id="Shape"></path>
                <path d="M10.5,0.6 C10.7,0.6 11.4,0.7 11.5,0.6 C11.2,0.6 10.8,0.6 10.5,0.6 Z" id="Shape"></path>
                <path d="M15,5.8 C15,5.7 15,5.5 15,5.4 C15,5.3 15,5.7 15,5.8 Z" id="Shape"></path>
                <path d="M17.4,17.9 C17.3,17.9 17.2,17.9 17.2,17.9 C17.2,17.9 17.3,17.9 17.4,17.9 Z" id="Shape"></path>
                <path d="M18.6,16.1 C18.5,16.1 18.5,16.2 18.6,16.3 C18.6,16.2 18.6,16.1 18.6,16.1 Z" id="Shape"></path>
                <path d="M16.2,8.6 C16.3,8.6 16.3,8.5 16.4,8.4 C16.3,8.4 16.2,8.5 16.2,8.6 Z" id="Shape"></path>
                <path d="M20.6,15.9 C20.6,15.9 20.6,15.4 20.6,15.4 C20.6,15.6 20.6,15.7 20.6,15.9 Z" id="Shape"></path>
                <path d="M17.2,6.7 C17.2,6.8 17.2,6.8 17.2,6.9 C17.2,6.8 17.2,6.7 17.2,6.7 Z" id="Shape"></path>
                <path d="M7.9,0.7 C8,0.7 8.1,0.7 8.2,0.7 C8.2,0.7 7.9,0.7 7.9,0.7 Z" id="Shape"></path>
                <path d="M14.4,1.1 C14.5,1.2 14.2,1 14.2,1 C14.3,1.1 14.4,1.1 14.4,1.1 Z" id="Shape"></path>
                <path d="M8.4,0.7 C8.5,0.7 8.6,0.7 8.6,0.7 C8.7,0.7 8.4,0.7 8.4,0.7 Z" id="Shape"></path>
                <path d="M8.9,0.7 C9,0.7 9.1,0.7 9.1,0.7 C9.2,0.7 8.9,0.7 8.9,0.7 Z" id="Shape"></path>
                <path d="M19.7,11.9 C19.8,11.9 19.8,11.9 19.9,11.9 C19.8,11.9 19.8,11.9 19.7,11.9 Z" id="Shape"></path>
                <path d="M17.2,4.1 C17.2,4 17.2,4 17.2,3.9 C17.2,4 17.2,4 17.2,4.1 Z" id="Shape"></path>
                <path d="M6.5,3.9 C6.5,3.8 6.5,3.7 6.5,3.6 C6.5,3.7 6.5,3.9 6.5,3.9 Z" id="Shape"></path>
                <path d="M16,13.6 C16,13.7 16,13.7 16,13.8 C16,13.8 16,13.7 16,13.6 Z" id="Shape"></path>
                <path d="M16.3,2.3 C16.3,2.3 16.2,2.2 16.2,2.2 C16.3,2.3 16.3,2.3 16.3,2.3 Z" id="Shape"></path>
                <path d="M11.5,0.6 C11.6,0.6 11.7,0.6 11.7,0.6 C11.5,0.6 11.4,0.6 11.5,0.6 Z" id="Shape"></path>
                <path d="M11.8,0.6 C11.9,0.6 11.7,0.6 11.7,0.6 C11.8,0.6 11.8,0.6 11.8,0.6 Z" id="Shape"></path>
                <path d="M6.2,0.8 C6.3,0.8 6.3,0.8 6.4,0.8 C6.3,0.8 6.2,0.8 6.2,0.8 Z" id="Shape"></path>
                <path d="M15.7,11.8 C15.7,11.8 15.7,11.9 15.7,11.9 C15.7,11.8 15.7,11.8 15.7,11.8 Z" id="Shape"></path>
                <path d="M13.4,9.9 C13.4,9.9 13.5,9.9 13.5,9.9 C13.5,10 13.4,9.9 13.4,9.9 Z" id="Shape"></path>
                <path d="M16.1,16.6 C16.1,16.6 16.1,16.7 16.1,16.7 C16.1,16.7 16.1,16.7 16.1,16.6 Z" id="Shape"></path>
                <path d="M10.4,9 C10.4,9 10.5,9 10.6,9 C10.5,8.9 10.4,8.9 10.4,9 Z" id="Shape"></path>
                <path d="M9.6,2.3 C9.5,2.3 9.5,2.3 9.4,2.3 C9.6,2.4 9.6,2.4 9.6,2.3 Z" id="Shape"></path>
                <path d="M13.5,8.3 C13.4,8.3 13.4,8.4 13.3,8.4 C13.4,8.4 13.4,8.4 13.5,8.3 Z" id="Shape"></path>
                <path d="M13.6,0.9 C13.7,0.9 13.7,0.9 13.6,0.9 C13.7,0.9 13.7,0.9 13.6,0.9 Z" id="Shape"></path>
                <path d="M10.2,0.6 C10.2,0.6 10.5,0.6 10.5,0.6 C10.4,0.6 10.3,0.6 10.2,0.6 Z" id="Shape"></path>
                <path d="M9.3,0.7 C9.3,0.7 9.4,0.7 9.4,0.7 C9.4,0.7 9.3,0.7 9.3,0.7 Z" id="Shape"></path>
                <path d="M18.6,15.5 C18.6,15.6 18.6,15.6 18.6,15.5 C18.6,15.6 18.6,15.6 18.6,15.5 Z" id="Shape"></path>
                <path d="M20.6,13.3 C20.6,13.3 20.6,13.4 20.6,13.5 C20.6,13.4 20.6,13.4 20.6,13.3 Z" id="Shape"></path>
                <path d="M20.6,13.2 C20.6,13.2 20.6,13.3 20.6,13.3 C20.6,13.3 20.6,13.2 20.6,13.2 Z" id="Shape"></path>
                <path d="M14.9,4.8 C14.9,4.9 14.9,4.9 14.9,5 C15,4.9 14.9,4.8 14.9,4.8 Z" id="Shape"></path>
                <path d="M6.8,0.8 C6.8,0.8 6.9,0.8 6.8,0.8 C6.9,0.8 6.8,0.8 6.8,0.8 Z" id="Shape"></path>
                <path d="M4.2,0.8 C4.1,0.8 4,0.8 4,0.8 C4,0.8 4.1,0.8 4.2,0.8 Z" id="Shape"></path>
                <path d="M10.2,0.6 C10.2,0.6 9.9,0.6 10,0.6 C10,0.6 10.1,0.7 10.2,0.6 Z" id="Shape"></path>
                <path d="M7.5,0.8 C7.5,0.8 7.4,0.8 7.5,0.8 C7.4,0.8 7.5,0.8 7.5,0.8 Z" id="Shape"></path>
                <path d="M7.3,0.8 C7.3,0.8 7.4,0.8 7.3,0.8 C7.4,0.8 7.3,0.8 7.3,0.8 Z" id="Shape"></path>
                <path d="M11,2.3 C11.1,2.3 11.2,2.3 11.2,2.3 C11.2,2.3 11.1,2.3 11,2.3 Z" id="Shape"></path>
                <path d="M12.3,2.5 C12.4,2.5 12.4,2.5 12.5,2.5 C12.5,2.5 12.4,2.5 12.3,2.5 Z" id="Shape"></path>
                <path d="M14.9,6.4 C14.9,6.5 14.9,6.5 14.9,6.6 C14.9,6.5 14.9,6.5 14.9,6.4 Z" id="Shape"></path>
                <path d="M20.6,12.6 C20.6,12.6 20.6,12.5 20.6,12.6 C20.5,12.5 20.5,12.6 20.6,12.6 Z" id="Shape"></path>
                <path d="M6.1,0.8 C6.1,0.7 6.8,0.8 5.9,0.8 C6,0.8 6.1,0.8 6.1,0.8 Z" id="Shape"></path>
                <path d="M9.7,2.3 C9.7,2.4 9.1,2.3 9.9,2.3 C9.8,2.3 9.7,2.3 9.7,2.3 Z" id="Shape"></path>
                <path d="M9,2.4 C9.1,2.4 9.1,2.4 9.2,2.4 C9.1,2.3 9.1,2.3 9,2.4 Z" id="Shape"></path>
                <path d="M13.4,2.8 C13.4,2.8 13.5,2.9 13.6,2.9 C13.5,2.8 13.4,2.8 13.4,2.8 Z" id="Shape"></path>
                <path d="M15,5.3 C15,5.2 15,5.2 15,5.1 C14.9,5.3 14.9,5.3 15,5.3 Z" id="Shape"></path>
                <path d="M6.6,3.5 C6.6,3.4 6.6,3.4 6.6,3.5 C6.6,3.4 6.6,3.4 6.6,3.5 Z" id="Shape"></path>
                <path d="M9.9,0.6 C10,0.6 9.7,0.6 9.7,0.6 C9.8,0.6 9.9,0.6 9.9,0.6 Z" id="Shape"></path>
                <path d="M11,8.9 C10.9,8.9 10.9,8.9 10.8,8.9 C10.9,8.9 11,9 11,8.9 Z" id="Shape"></path>
                <path d="M13,8.5 C13,8.5 13,8.6 13,8.5 C13,8.6 13,8.6 13,8.5 Z" id="Shape"></path>
                <path d="M14.8,6.8 C14.8,6.8 14.8,6.9 14.8,6.8 C14.8,6.9 14.8,6.8 14.8,6.8 Z" id="Shape"></path>
                <path d="M15,5.8 C14.9,5.8 14.9,5.8 15,6 C15,5.9 15,5.8 15,5.8 Z" id="Shape"></path>
                <path d="M2.9,0.7 C2.9,0.7 2.8,0.7 2.8,0.7 C2.8,0.7 2.9,0.7 2.9,0.7 Z" id="Shape"></path>
                <path d="M11.3,8.9 C11.3,8.9 11.2,8.9 11.2,8.9 C11.2,8.9 11.3,8.9 11.3,8.9 Z" id="Shape"></path>
                <path d="M3.7,0.8 C3.7,0.8 3.6,0.8 3.6,0.8 C3.6,0.8 3.7,0.8 3.7,0.8 Z" id="Shape"></path>
                <path d="M6.8,0.8 C6.8,0.8 7.2,0.8 6.7,0.8 C6.7,0.8 6.7,0.8 6.8,0.8 Z" id="Shape"></path>
                <path d="M8.7,2.4 C8.7,2.4 8.8,2.4 8.8,2.4 C8.8,2.4 8.8,2.4 8.7,2.4 Z" id="Shape"></path>
                <path d="M8.8,0.7 C8.8,0.8 8.9,0.7 8.9,0.7 C8.9,0.7 8.8,0.7 8.8,0.7 Z" id="Shape"></path>
                <path d="M8.8,0.7 C8.8,0.7 8.7,0.7 8.7,0.7 C8.7,0.7 8.8,0.7 8.8,0.7 Z" id="Shape"></path>
                <path d="M2.4,0.7 C2.4,0.7 2.3,0.7 2.3,0.7 C2.3,0.7 2.3,0.7 2.4,0.7 Z" id="Shape"></path>
                <path d="M9.3,0.7 C9.3,0.7 9.2,0.7 9.2,0.7 C9.2,0.7 9.3,0.7 9.3,0.7 Z" id="Shape"></path>
                <path d="M2.6,0.7 C2.6,0.7 2.5,0.7 2.5,0.7 C2.6,0.7 2.6,0.7 2.6,0.7 Z" id="Shape"></path>
                <path d="M17.3,4.8 C17.3,4.7 17.3,4.7 17.3,4.8 C17.3,4.7 17.3,4.7 17.3,4.8 Z" id="Shape"></path>
                <path d="M7.2,2.7 C7.2,2.7 7.3,2.7 7.3,2.6 C7.3,2.7 7.2,2.7 7.2,2.7 Z" id="Shape"></path>
                <path d="M8.1,2.5 C8.1,2.5 8.2,2.5 8.1,2.5 C8.2,2.4 8.1,2.4 8.1,2.5 Z" id="Shape"></path>
                <path d="M8.3,2.4 C8.3,2.4 8.4,2.4 8.4,2.4 C8.3,2.4 8.3,2.4 8.3,2.4 Z" id="Shape"></path>
                <path d="M8.5,2.4 C8.5,2.4 8.6,2.4 8.6,2.4 C8.5,2.4 8.5,2.4 8.5,2.4 Z" id="Shape"></path>
                <path d="M11.4,2.3 C11.4,2.3 11.5,2.3 11.5,2.3 C11.5,2.3 11.5,2.3 11.4,2.3 Z" id="Shape"></path>
                <path d="M20.6,13.5 C20.6,13.6 20.6,13.6 20.6,13.6 C20.6,13.6 20.6,13.5 20.6,13.5 Z" id="Shape"></path>
                <path d="M7.3,0.8 C7.3,0.8 7.6,0.8 7.2,0.8 C7.2,0.8 7.2,0.8 7.3,0.8 Z" id="Shape"></path>
                <path d="M3.5,0.8 C3.5,0.8 3.4,0.8 3.4,0.8 C3.4,0.8 3.4,0.8 3.5,0.8 Z" id="Shape"></path>
                <path d="M7.8,0.7 C7.8,0.7 7.8,0.7 7.9,0.7 C7.9,0.7 7.8,0.7 7.8,0.7 Z" id="Shape"></path>
                <path d="M7.8,0.8 C7.8,0.8 8.1,0.8 7.7,0.8 C7.7,0.7 7.7,0.8 7.8,0.8 Z" id="Shape"></path>
                <path d="M8.3,0.7 C8.3,0.7 8.4,0.7 8.4,0.7 C8.4,0.7 8.3,0.7 8.3,0.7 Z" id="Shape"></path>
                <path d="M8.3,0.7 C8.3,0.7 8.2,0.7 8.2,0.7 C8.2,0.7 8.3,0.7 8.3,0.7 Z" id="Shape"></path>
            </g>
            <g id="Group" transform="translate(3.000000, 22.000000)">
                <path d="M15.6,6.9 C15.3,5.3 14,4.7 12.5,4.7 C13.2,3.9 14.1,3.1 14.9,2.4 C15.7,1.6 15.5,1 14.4,1 C13.3,1 12.3,1 11.2,1 C10.6,1 10,1 9.5,1 C9.2,1 8.7,0.9 8.5,1.2 C8.3,1.4 8.4,2.1 8.4,2.4 C8.4,2.9 8.3,3.5 8.4,4 C8.5,4.3 8.7,4.5 9,4.4 C9.4,4.3 9.4,3.8 9.4,3.5 C9.4,3.1 9.2,2.6 9.6,2.3 C9.9,2.1 10.4,2.2 10.7,2.2 C11.3,2.2 11.9,2.2 12.4,2.2 C12.7,2.2 13.6,2.1 13.7,2.2 C13.1,2.6 12.6,3.2 12.1,3.8 C11.9,4 11.6,4.3 11.4,4.5 C11.2,4.7 10.8,5 10.6,5.3 C10.4,5.9 10.9,5.9 11.3,5.8 C12,5.7 12.7,5.6 13.4,5.9 C14.4,6.3 14.6,7.4 14.3,8.3 C13.9,9.5 12.7,10 11.6,10 C11,10 10.5,9.8 10,9.5 C9.8,9.4 8.8,8.6 9.1,8.2 C9.2,8.1 9.5,8.2 9.6,8.1 C9.8,8 10,7.9 10.1,7.7 C10.3,7.3 10.1,6.8 9.7,6.6 C8.5,6 7.7,7.6 7.9,8.6 C8.1,9.8 9.3,10.5 10.4,10.8 C13,11.5 16.2,9.9 15.6,6.9 Z" id="Shape"></path>
                <path d="M6.1,9.7 C5.6,9.6 4.9,10 4.5,9.6 C4.1,9.3 4.2,8.5 4.2,8 C4.2,6.7 4.2,5.3 4.2,4 C4.2,3.3 4.2,2.7 4.3,2 C4.3,1.6 4.4,1 3.9,0.9 C3.4,0.8 2.6,1 2.1,0.9 C1.7,0.9 0.9,0.7 0.8,1.3 C0.7,2.4 2.3,1.5 2.7,2 C3,2.3 2.9,3.1 2.9,3.5 C2.9,4.2 2.9,4.9 2.9,5.6 C2.9,6.3 2.9,6.9 2.9,7.6 C2.9,8.1 3,9 2.8,9.4 C2.5,10 0.2,9.2 0.7,10.3 C0.9,10.8 1.6,10.6 2,10.6 C2.8,10.5 3.5,10.5 4.3,10.5 C4.8,10.5 5.9,10.9 6.3,10.5 C6.8,10.3 6.6,9.8 6.1,9.7 Z" id="Shape"></path>
            </g>
        </g>
    </g>
</svg>