<?xml version="1.0" encoding="UTF-8"?>
<svg width="132px" height="34px" viewBox="0 0 132 34" version="1.1" xmlns="http://www.w3.org/2000/svg" xmlns:xlink="http://www.w3.org/1999/xlink">
    <!-- Generator: Sketch 48.2 (47327) - http://www.bohemiancoding.com/sketch -->
    <title>spiritualgangster</title>
    <desc>Created with Sketch.</desc>
    <defs></defs>
    <g id="Page-1" stroke="none" stroke-width="1" fill="none" fill-rule="evenodd">
        <g id="spiritualgangster" fill="#000000" fill-rule="nonzero">
            <g id="Group">
                <g id="Shape">
                    <path d="M60.8,11.2 C60.8,11.6 60.8,12 60.8,12.4 C61,14.4 62.1,15.8 64,16.4 C65.3,16.8 66.6,16.8 67.9,16.5 C69.7,16.1 70.9,15 71.4,13.2 C71.6,12.6 71.6,12 71.6,11.4 C71.5,10.4 71.7,9.5 72.5,8.7 C72.7,8.5 72.8,8.3 72.8,8 C72.1,7.4 71.3,7.5 70.5,7.8 C70.4,7.5 70.4,7.2 70.4,6.9 C70.4,5.9 70.4,4.8 70.4,3.8 C70.4,3.5 70.4,3.3 70.3,3 C70.1,2.5 69.6,2.1 69,2.2 C68.3,2.3 67.9,2.5 67.9,3.2 C67.8,4.8 68,6.5 67.7,8.1 C67.5,7.9 67.5,7.6 67.5,7.3 C67.5,5.5 67.5,3.6 67.5,1.8 C67.5,0.9 66.8,0.4 66,0.6 C65.8,0.7 65.5,0.7 65.3,0.9 C65,1.3 65,1.7 65,2.2 C65,4 65,5.7 65,7.5 C65,7.6 65.1,7.8 64.9,8 C64.6,7.8 64.7,7.5 64.7,7.2 C64.7,6.1 64.7,5 64.7,3.9 C64.7,3.6 64.7,3.3 64.6,3 C64.4,2.4 64.1,2.2 63.4,2.2 C62.9,2.2 62.5,2.5 62.3,2.9 C62,3.3 62,3.6 62,3.8 C62,4.9 62,6 62,7.1 C62,7.3 62.1,7.6 61.9,7.7 C61,7.4 60.2,7.1 59.5,8 C59.5,8.4 59.8,8.6 60,8.8 C60.5,9.6 60.8,10.3 60.8,11.2 Z M65.5,10.2 C65.7,10.3 65.9,10.4 66.1,10.6 C66.3,10.4 66.5,10.3 66.7,10.2 C67.6,9.8 68.6,10.5 68.5,11.5 C68.5,11.9 68.4,12.2 68.1,12.5 C67.5,13.2 66.9,13.8 66,14.1 C65.2,13.8 64.5,13.3 63.9,12.6 C63.6,12.3 63.5,11.9 63.5,11.5 C63.6,10.5 64.6,9.8 65.5,10.2 Z"></path>
                    <path d="M67.7,26 C67.5,26 67.3,26 67.2,26 C64.3,26.1 61.4,26.3 58.5,26.4 C55.7,26.6 52.9,26.9 50,26.9 C50,26.7 50.1,26.6 50.2,26.6 C50.9,26.3 51.3,25.7 51.8,25.3 C52.5,24.7 53,23.9 53.4,23 C53.7,22.3 53.7,21.6 53.3,21 C52.7,20.6 52.1,20.6 51.5,20.9 C50.6,21.3 49.8,21.8 49.1,22.5 C48.1,23.5 47.4,24.6 47.8,26.1 C47.8,26.3 47.8,26.5 47.6,26.7 C47.2,27.1 45,27.3 44.4,27 C44,26.8 43.7,26.5 43.6,26.1 C43.5,25.9 43.5,25.6 43.4,25.4 C43.1,24.7 42.2,24.8 41.6,24.9 C41,25.1 40.5,25.3 40,25.7 C39.6,26 39.3,26.3 39.2,26.8 C39,27.7 39.8,28 40.5,27.9 C40.7,27.9 40.9,27.9 41,27.8 C41.7,27.6 42.4,27.5 43.1,27.2 C43.9,28 44.8,28.1 45.8,28 C46.7,27.9 47.5,27.7 48.3,27.4 C48.5,27.5 48.8,27.5 48.9,27.6 C49.5,28 50.2,27.9 50.8,27.9 C52.1,27.8 53.5,27.6 54.8,27.6 C56.6,27.6 58.4,27.2 60.2,27.1 C62.4,27 64.6,26.9 66.8,26.9 C67.1,26.9 67.9,27.1 68.2,26.9 C68.5,26.7 68.4,26.2 68.1,26 C68,26.1 67.8,26.1 67.7,26 Z M42.3,26.7 C41.7,26.9 41.1,26.9 40.5,27.1 C40.4,27.1 40.2,27.2 40.1,27.1 C40,27 40.1,26.8 40.2,26.7 C40.5,26.4 41,26.2 41.4,26 C41.7,25.9 43.1,25.7 42.7,26.4 C42.7,26.6 42.5,26.7 42.3,26.7 C42.3,26.7 42.3,26.7 42.3,26.7 Z M48.7,26.2 C48.5,25.2 48.6,24.4 49.2,23.6 C50.1,22.6 51.2,21.9 52.6,21.4 C52.9,22.3 52.5,23 52.1,23.6 C51.3,24.6 50.5,25.5 49.3,26 C49.2,26.1 49,26.2 48.7,26.2 Z"></path>
                    <path d="M11,23.2 C11,23.2 10.9,23.2 10.8,23.3 C10.7,23.8 10.3,24.1 9.8,24.4 C9.7,24.5 9.6,24.6 9.6,24.7 C9.7,24.9 9.9,24.9 9.9,25.1 C9.4,25.7 9.1,25.8 8.2,25.8 C8.4,25.5 8.6,25.2 8.8,24.9 C9.2,24.3 9.5,23.7 9.7,23.1 C10,21.9 9.3,21.3 8.2,21.6 C6.9,21.9 5.8,22.6 4.6,23.4 C3.8,24 3,24.6 2.2,25.2 C1.6,25.7 1,26.1 0.8,26.9 C1.2,27.4 1.6,27.2 2,26.9 C2.1,27 2.2,27 2.2,27.1 C3.3,28.3 4.2,28.5 5.5,27.6 C5.8,27.4 6.1,27.3 6.3,27.1 C6.5,27 6.8,26.8 7,26.8 C7.9,26.8 8.7,26.7 9.5,26.5 C9.5,26.5 9.6,26.6 9.7,26.6 C9.9,27.6 9.3,28.4 8.8,29.1 C8.8,29.5 9.1,29.7 9.2,30 C9.1,30.8 8.9,31.7 9.1,32.5 C9.5,32.8 9.5,32.8 10,32.5 C10,31.5 10.1,30.5 10.3,29.5 C10.9,29.2 11.5,29 12,28.7 C12.8,28.3 13.5,27.8 14,27 C14.4,26.3 14.5,25.3 13.8,24.6 C13.1,23.9 12.1,23.5 11,23.2 Z M3.7,27.3 C3.3,27.2 3,27.1 3,26.5 C3.7,26.4 4.4,26.4 5.1,26.7 C4.6,26.9 4.3,27.4 3.7,27.3 Z M6.8,25.6 C5.8,26.2 4.6,25.6 3.5,25.5 C4.2,24.3 6,23.4 7.2,22.8 C7.6,22.6 8,22.4 8.5,22.4 C8.6,22.4 8.6,22.4 8.7,22.4 C9.7,22.9 7.5,25.1 7.1,25.4 C7,25.5 6.9,25.6 6.8,25.6 Z M13.2,26.8 C12.6,27.5 11.9,27.9 11.1,28.2 C11,28.2 10.9,28.3 10.7,28.1 C10.9,27 11,25.9 11.4,24.8 C11.5,24.5 11.7,24.4 12,24.3 C12.4,24.3 12.6,24.6 12.9,24.8 C13.6,25.3 13.7,26.2 13.2,26.8 Z"></path>
                    <path d="M37.9,24.8 C37.8,24.8 37.8,24.8 37.7,24.9 C37.5,25 37.4,25.2 37.4,25.4 C37.2,26.1 36.8,26.8 36.3,27.3 C35.7,27.8 34.8,27.9 34.2,27.5 C33.6,27 33.6,26 33.8,25.2 C33.8,25 33.9,24.8 33.8,24.6 C33.7,24.1 33,24 32.5,24.1 C32,24.2 31.5,24.5 31,24.3 C30.9,24.3 30.8,24.2 30.8,24.1 C30.7,24 30.8,23.8 30.8,23.6 C30.9,23 31.1,22.4 31.2,21.7 C31.3,21.5 31.3,21.2 31.2,21 C31.1,20.8 30.9,20.6 30.7,20.6 C30.4,20.7 30.3,21 30.3,21.2 C30.1,21.9 30,22.7 29.8,23.4 C29.7,23.7 29.7,24 29.5,24.2 C29.3,24.5 28.9,24.5 28.7,24.8 C28.5,25.1 28.7,25.4 28.4,25.6 C27.9,25.8 25.3,27 25.6,25.6 C25.6,25.5 25.7,25.3 25.8,25.2 C25.9,25 26.7,22.8 25.8,23 C25.5,23.1 25.4,23.2 25.3,23.4 C25.1,23.8 24.9,24.3 24.8,24.7 C24.7,25.4 24.2,25.9 23.6,26 C22.7,26.2 21.9,26.5 21,26.4 C20.8,26.4 20.6,26.4 20.5,26.2 C20.8,25.7 21.2,25.4 21.6,25 C22,24.5 22.2,24 22.3,23.4 C22.5,22.5 21.7,21.7 20.6,21.9 C20.1,22 19.5,22.2 19.1,22.5 C18.2,23.2 17.6,24 17.7,25.2 C17.8,26.9 20,27.3 21.4,27.2 C22.5,27.2 23.4,26.9 24.4,26.5 C24.6,26.4 24.7,26.2 25,26.3 C25.4,26.9 26.1,27.2 26.8,26.9 C27.7,26.6 28.6,26.3 29.5,25.8 C29.6,26.3 30,26.9 30.5,26.8 C30.5,26.3 30.5,25.8 30.5,25.3 C30.5,25.1 30.5,24.9 30.6,24.8 C30.7,24.7 30.9,24.7 31,24.7 C31.5,24.6 32.1,24.7 32.6,24.8 C32.4,26.2 33.1,27.8 34.5,28.1 C35.4,28.3 36.4,27.9 37,27.2 C37.6,26.5 37.9,25.6 38.1,24.6 C38.1,24.6 38.1,24.5 38.1,24.5 C38.2,24.8 38.1,24.8 37.9,24.8 Z M19.1,26.4 C19.1,26.4 19,26.4 19,26.4 C18.9,26.4 18.8,26.3 18.8,26.2 C18.5,25.6 18.6,24.9 19,24.4 C19.5,23.7 20.4,23.2 21.3,23.1 C21.4,23.1 21.4,23.1 21.5,23.1 C21.6,23.1 21.6,23.2 21.6,23.3 C21.9,24.7 20.1,25.8 19.1,26.4 C19.1,26.4 19.1,26.4 19.1,26.4 Z"></path>
                    <path d="M15.7,23.7 C15.5,24.5 15.4,25.3 15.2,26.1 C15.1,26.7 15.3,27.2 15.4,27.7 C15.4,27.9 15.6,28.1 15.9,28 C16.2,27.9 16.3,27.6 16.2,27.3 C16,27.2 16,26.9 16,26.6 C16.1,25.9 16.3,25.3 16.4,24.6 C16.5,24.3 16.5,24.1 16.4,23.8 C16.2,23.7 16,23.6 15.7,23.7 Z"></path>
                </g>
                <path d="M130.7,26.9 C130.2,26.7 129.6,26.7 129,26.7 C124.7,26.9 120.3,27.4 116.2,26.1 C115.7,26 115.3,25.8 115,25.3 C115.2,25 115.6,24.8 115.8,24.5 C116.1,24.2 116.2,23.7 116,23.4 C115.7,23 115.2,23.1 114.8,23.3 C113.5,23.9 112.6,25.3 111.1,25.6 C111,25.6 110.9,25.6 110.8,25.6 C110.7,25.6 110.7,25.5 110.6,25.4 C110.4,25.1 110.6,24.7 110.8,24.5 C111.1,24.3 111.5,24.6 111.8,24.3 C112,24.1 112,23.8 111.9,23.6 C111.6,23.2 111.2,23.1 110.8,23.3 C109.9,23.6 109.1,23.6 108.2,23.6 C107.8,23.6 107.5,23.6 107.1,23.6 C106.4,23.6 105.6,23.7 104.9,23.6 C105,23.4 105.1,23.3 105.2,23.1 C105.7,22.2 106.9,19.1 105.6,18.4 C105.2,18.5 105,18.7 104.9,19 C104.4,19.8 104,20.7 103.7,21.6 C103.4,22.4 103.2,23.1 102.9,23.8 C102.3,24 101.7,24.4 101,24.2 C101,23.3 101.4,22.7 101.7,21.9 C101.6,21.6 101.4,21.5 101.1,21.4 C100.3,21.7 99.6,22 98.8,22.3 C98.1,22.6 97.4,23.1 96.7,23.5 C96,23.9 95.6,24.7 94.8,25.1 C94.8,24.8 94.8,24.4 94.5,24.2 C93.8,23.6 92.5,24.3 91.9,24.8 C91.3,25.2 90.9,25.9 90,25.8 C90,25.7 89.9,25.7 89.9,25.6 C89.7,24.6 89.3,24.3 88.4,24.2 C87,24.1 85.7,24.5 84.4,25 C84,25.2 83.6,25.3 83.1,25.3 C82.4,25.3 81.6,25.2 80.9,25.4 C80.6,25.5 80.3,25.5 80.1,25.3 C80.6,24.5 82.1,24.2 83.1,24.4 C83.3,24.4 83.5,24.5 83.6,24.4 C83.8,24.3 83.8,23.9 83.6,23.8 C83.4,23.6 83.2,23.5 82.9,23.5 C81.2,23.2 79.8,23.9 78.8,25.2 C77.8,25.2 76.9,25.7 75.8,26 C75.8,25.1 75.9,24.3 75.9,23.5 C76.7,23.4 76.8,23.2 76.7,22.4 C76.4,22.2 76.1,21.9 75.7,22 C74.6,22.3 73.5,22.9 72.5,23.5 C71.7,24 70.1,24.8 69.9,25.9 C70.4,26.5 70.7,26.6 71.3,26.4 C72.2,26 73.1,25.8 73.9,25.2 C74.2,25 74.4,24.9 74.8,24.9 C74.7,25.6 74.7,26.2 74.5,26.8 C73.4,27.4 72.5,28.2 71.6,28.9 C71,29.5 70.5,30.2 70.2,31 C70,31.5 70,31.9 70.3,32.4 C71,33.4 72.2,33.6 73.3,32.9 C74,32.5 74.3,31.8 74.6,31.1 C75,29.8 75.2,28.5 75.6,27.2 C76.6,26.5 77.6,25.9 78.7,25.5 C78.5,25.6 79.6,26.4 79.8,26.5 C80.4,26.7 81,26.5 81.6,26.4 C82.4,26.2 83.1,26.2 83.8,26.6 C85.2,25.3 86.9,25.1 88.6,25.2 C88.7,25.8 88.7,26.3 89,26.6 C89.6,27.1 90.2,26.9 90.7,26.8 C91.3,27.3 91.7,27.8 92,28.5 C91.8,28.9 91.5,29.4 91.4,29.8 C91.2,30.2 91.1,30.7 91.1,31.2 C91.4,31.5 91.7,31.8 92,32 C93.1,32 93.7,31.4 93.7,30.4 C93.7,29.7 93.8,29 93.4,28.3 C95.1,25.9 97.1,23.9 100,22.8 C99.9,23.6 99.9,24.3 99.3,24.5 C98.5,24.8 97.9,24.4 97.3,24.8 C97.4,25.5 97.5,25.7 98,25.8 C98.4,25.9 98.8,25.9 99.2,25.8 C100.1,25.6 101.1,25.3 102,25 C102.2,24.9 102.4,24.8 102.6,24.9 C102.7,25.3 102.9,25.6 103.3,25.8 C103.7,25.6 103.5,25.1 103.8,24.8 C105.5,24.3 107.3,24.4 109.2,24.4 C109.2,25 109.4,25.6 109.7,26 C110.7,27.2 112.2,26.1 113.3,25.6 C113.4,25.6 113.5,25.5 113.6,25.5 C113.7,25.5 113.8,25.6 113.9,25.7 C114.6,26.6 115.8,26.9 117,27.1 C119.3,27.5 121.6,27.8 123.9,27.7 C125.8,27.6 127.8,27.2 129.6,27.6 C129.9,27.7 130.3,27.8 130.6,27.7 C130.9,27.6 131.2,27.3 131.1,27 C131.1,27.1 130.9,27 130.7,26.9 C130.7,26.9 130.7,26.9 130.7,26.9 Z M74.1,29.9 C73.9,30.9 73.4,32.1 72.3,32.3 C71.9,32.4 71.3,32.2 71.2,31.8 C71.1,31.5 71.2,31.3 71.4,31 C71.7,30.4 72.2,29.8 72.7,29.3 C72.8,29.2 74.3,28.1 74.3,28.1 C74.5,28.8 74.3,29.4 74.1,29.9 Z M72.5,24.9 C73.1,24.1 73.8,23.7 75,23.4 C74.3,24 73.4,24.5 72.5,24.9 Z M92.5,31.1 C92.1,31.5 92.8,29.7 92.8,29.7 C92.8,29.7 92.8,30.7 92.5,31.1 Z M92.8,27.4 C92.4,27.3 92.2,26.9 92,26.6 C92.7,26.3 93.4,26 94.1,25.7 C93.8,26.4 93.6,26.7 92.8,27.4 Z" id="Shape"></path>
            </g>
        </g>
    </g>
</svg>