<?xml version="1.0" encoding="UTF-8"?>
<svg width="64px" height="24px" viewBox="0 0 64 24" version="1.1" xmlns="http://www.w3.org/2000/svg" xmlns:xlink="http://www.w3.org/1999/xlink">
    <!-- Generator: Sketch 48.2 (47327) - http://www.bohemiancoding.com/sketch -->
    <title>stio</title>
    <desc>Created with Sketch.</desc>
    <defs></defs>
    <g id="Page-1" stroke="none" stroke-width="1" fill="none" fill-rule="evenodd">
        <g id="stio" fill-rule="nonzero">
            <g id="Group">
                <path d="M16,20.6 C14.7,20.7 13.1,21.4 12.4,22.3 C12.4,22.3 12.4,22.3 12.5,22.3 C13.4,21.9 14.3,21.5 15.1,21.1 C15.4,20.9 15.7,20.8 16,20.6 C16,20.6 16,20.6 16,20.6 C16,20.6 16,20.6 16,20.6 C16,20.6 16,20.6 16,20.6 Z M3.5,20.6 C3.5,20.6 3.4,20.6 3.5,20.6 C3.4,20.6 3.4,20.6 3.4,20.6 C3.4,20.6 3.5,20.6 3.5,20.6 C3.7,20.7 3.9,20.9 4.2,21 C5,21.4 5.8,21.7 6.5,22.1 C6.7,22.2 6.9,22.3 7.3,22.4 C6.2,21.4 5,20.8 3.5,20.6 Z M0.7,15.8 C1.1,16.4 1.5,16.9 1.9,17.5 C2.4,18.4 3.2,18.3 4.1,18.4 C3.7,17.8 3.4,17.3 3.1,16.9 C3,16.8 2.8,16.6 2.6,16.6 C2,16.3 1.4,16.1 0.7,15.8 Z M44.9,19.6 C44.9,19.6 44.9,19.6 44.9,19.6 C46.5,19.6 48.1,19.6 49.8,19.6 C50.2,19.6 50.5,19.6 50.9,19.6 C51.3,19.6 51.5,19.4 51.5,19 C51.5,18.7 51.5,18.4 51.5,18.1 C51.5,17 51.5,17 50.4,16.9 C49.8,16.9 49.6,16.7 49.6,16.1 C49.6,15.9 49.6,15.8 49.6,15.6 C49.6,13.2 49.6,10.9 49.6,8.5 C49.6,8.2 49.6,7.9 49.6,7.6 C49.6,6.6 49.5,6.6 48.6,6.6 C47.9,6.6 47.2,6.6 46.5,6.6 C46.1,6.6 45.6,6.6 45.2,6.6 C44.7,6.6 44.5,6.8 44.5,7.3 C44.5,7.6 44.5,7.8 44.5,8.1 C44.5,9.2 44.5,9.2 45.6,9.2 C46.3,9.2 46.5,9.4 46.5,10.1 C46.5,12 46.5,14 46.5,15.9 C46.5,16.7 46.3,16.9 45.5,16.9 C44.2,16.9 43,16.9 41.7,16.9 C41.3,16.9 40.9,16.9 40.5,16.9 C39.6,16.8 39.1,16.4 39,15.4 C39,15.1 39,14.8 39,14.5 C39,13.2 39,11.9 39,10.6 C39,9.2 39,9.2 40.4,9.2 C41,9.2 41.6,9.2 42.2,9.2 C42.8,9.2 42.9,9 43,8.5 C43,8.1 43,7.7 43,7.3 C43,6.8 42.9,6.7 42.4,6.7 C42.2,6.7 42,6.7 41.7,6.7 C41.1,6.7 40.4,6.7 39.8,6.7 C39.2,6.7 39,6.5 39,5.9 C39,5.5 39,5.1 39,4.7 C39,4.1 39,3.5 39,2.9 C39,2.4 38.8,2.3 38.4,2.5 C37.7,2.8 37.1,3.1 36.4,3.4 C36,3.6 35.9,3.9 35.9,4.3 C35.9,4.8 35.9,5.2 35.9,5.7 C35.9,6.6 35.7,6.8 34.8,6.8 C34.5,6.8 34.2,6.8 33.9,6.8 C31.1,6.8 28.2,6.8 25.4,6.8 C25.1,6.8 24.8,6.8 24.5,6.9 C23.6,7.1 22.9,7.8 22.8,8.7 C22.7,9.9 22.7,11.1 22.8,12.3 C22.9,13.2 23.4,13.9 24.3,14.1 C24.5,14.2 24.7,14.2 24.9,14.2 C26.2,14.4 27.5,14.6 28.8,14.8 C29.8,15 30,15.3 30,16.3 C30,17 29.8,17.2 29.1,17.2 C28.3,17.2 27.5,17.2 26.6,17.2 C25.8,17.2 25.7,17.2 25.6,16.4 C25.5,16 25.3,15.8 25,15.8 C24.5,15.8 23.9,15.8 23.4,15.8 C22.9,15.8 22.7,16 22.7,16.5 C22.7,17.1 22.7,17.7 22.7,18.2 C22.7,19.1 23.3,19.7 24.2,19.8 C24.5,19.8 24.7,19.8 25,19.8 C26.8,19.8 28.6,19.8 30.4,19.8 C30.7,19.8 31.1,19.8 31.4,19.7 C32.5,19.5 33,19 33.1,17.9 C33.1,16.7 33.1,15.6 33.1,14.4 C33.1,13.3 32.5,12.7 31.4,12.4 C30.8,12.3 30.2,12.2 29.5,12.1 C28.5,11.9 27.5,11.8 26.5,11.6 C25.9,11.5 25.8,11.3 25.7,10.7 C25.6,9.4 26,9.3 26.9,9.3 C29.5,9.3 32,9.3 34.6,9.3 C34.7,9.3 34.9,9.3 35,9.3 C35.5,9.4 35.6,9.5 35.7,10 C35.7,10.2 35.7,10.4 35.7,10.7 C35.7,12.6 35.7,14.6 35.7,16.5 C35.7,18.1 36.7,19.3 38.2,19.6 C38.7,19.7 39.2,19.8 39.7,19.8 C41.6,19.6 43.3,19.6 44.9,19.6 Z M63.9,13 C63.9,11.8 63.9,10.5 63.9,9.3 C63.9,9.1 63.9,8.8 63.9,8.6 C63.8,7.4 62.9,6.5 61.7,6.5 C59.5,6.4 57.3,6.5 55.2,6.5 C55.2,6.5 55.1,6.5 55.1,6.5 C54,6.6 53.2,7.4 53.1,8.5 C53,8.9 53,9.2 53,9.6 C53,11.9 53,14.1 53,16.4 C53,16.7 53,17 53.1,17.3 C53.3,18.7 54.2,19.6 55.7,19.6 C57.6,19.6 59.5,19.6 61.4,19.6 C62.9,19.6 64.1,18.5 64,16.9 C63.9,15.6 63.9,14.3 63.9,13 Z M9.7,15.9 C10,15.8 10.3,15.7 10.7,15.6 C11.2,15.5 11.8,15.4 12.3,15.3 C13.3,15.1 13.2,15.1 13.3,14.1 C13.3,13.6 13.2,13.3 12.7,13 C11.9,12.5 11.1,12 10.4,11.5 C9.9,11.2 9.5,11.2 9.1,11.5 C8.4,12 7.7,12.5 7,12.9 C6.4,13.2 6.1,13.7 6.3,14.4 C6.3,14.5 6.3,14.6 6.3,14.8 C6.3,15.1 6.5,15.2 6.7,15.3 C7.4,15.4 8.1,15.5 8.8,15.6 C9.1,15.6 9.4,15.8 9.7,15.9 Z M9.7,10.4 C9.8,10.3 9.9,10.3 10,10.2 C10.4,9.9 10.8,9.5 11.2,9.2 C11.6,8.9 11.9,8.7 12.3,8.5 C12.6,8.3 12.6,8.1 12.5,7.8 C12.4,7.6 12.3,7.5 12.2,7.3 C11.6,6.7 10.9,6.1 10.3,5.5 C9.8,5.1 9.7,5 9.2,5.5 C8.6,6.1 7.9,6.6 7.3,7.2 C6.6,7.9 6.7,8.2 7.5,8.7 C7.5,8.7 7.6,8.7 7.6,8.8 C8.2,9.2 9,9.5 9.4,10.2 C9.5,10.3 9.6,10.4 9.7,10.4 Z M10.4,10.7 C10.7,10.9 10.9,11 11.1,11.2 C11.8,11.6 12.5,12.1 13.2,12.5 C13.6,12.7 14,13 14,13.4 C14.5,13.3 14.9,13.1 15.3,13 C15.5,12.9 15.8,12.8 15.9,12.6 C16,11.9 16.2,11.3 15.8,10.6 C15.4,10 15,9.4 14.5,8.8 C14.1,8.3 14.1,8.3 13.5,8.6 C12.7,9.1 11.8,9.6 11,10.2 C10.8,10.3 10.6,10.5 10.4,10.7 Z M5.4,13.4 C5.5,12.9 5.9,12.7 6.2,12.4 C6.9,11.9 7.7,11.5 8.4,11 C8.9,10.7 8.9,10.6 8.5,10.3 C7.6,9.7 6.7,9.2 5.7,8.6 C5.4,8.4 5.2,8.5 5,8.7 C4.7,9.1 4.4,9.6 4.1,9.9 C3.5,10.6 3.3,11.3 3.5,12.2 C3.6,12.8 3.6,12.8 4.2,13 C4.6,13.1 5,13.2 5.4,13.4 Z M13.8,20.9 C13.5,20.4 13,20.3 12.5,20.4 C11.9,20.5 11.4,20.6 10.8,20.7 C10.3,20.8 9.9,20.8 9.7,21.5 C9.7,20.9 9.2,20.8 8.9,20.8 C8.3,20.7 7.6,20.6 7,20.5 C6.5,20.4 6.1,20.5 5.7,21 C5.9,21.1 6.1,21.3 6.2,21.4 C7.3,22 8.1,22.8 9.1,23.6 C9.7,24.1 9.8,24.1 10.5,23.6 C11.4,22.9 12.3,22 13.4,21.4 C13.4,21.1 13.6,21 13.8,20.9 Z M4.9,15.6 C4.9,15.6 4.7,15.6 4.6,15.7 C4.2,16 3.9,16.3 3.5,16.6 C3.7,16.9 3.9,17.3 4,17.6 C4.3,18.2 4.7,18.6 5.5,18.5 C5.7,18.5 5.9,18.6 6.1,18.6 C6.2,18.6 6.3,18.6 6.4,18.6 C6.8,18.5 7.2,18.3 7.5,18.2 C8,18 8.4,17.9 8.9,17.7 C9.2,17.6 9.2,17.4 9.2,17.1 C9.1,16.3 9,16.2 8.1,16.1 C7.9,16.1 7.8,16.1 7.6,16 C6.8,15.9 5.9,15.8 4.9,15.6 Z M14.5,15.6 C14,15.7 13.7,15.8 13.3,15.8 C12.5,15.9 11.7,16 10.9,16.2 C10.3,16.3 10.2,16.5 10.1,17.2 C10.1,17.6 10,17.6 10.7,17.9 C11.4,18.2 12.2,18.4 12.9,18.7 C13,18.7 13.1,18.7 13.2,18.7 C13.4,18.7 13.6,18.6 13.8,18.6 C14.5,18.7 15,18.3 15.3,17.7 C15.3,17.7 15.3,17.6 15.4,17.6 C16,16.7 16,16.7 15.1,16 C14.9,15.8 14.6,15.7 14.5,15.6 Z M6,7.9 C6.5,6.6 7.7,6 8.6,5 C8,4.5 7.4,4 6.7,3.6 C6.4,3.4 6.2,3.5 6,3.7 C5.5,4.4 5,5.1 4.5,5.8 C4.3,6.1 4.4,6.3 4.6,6.5 C4.9,6.7 5.1,6.8 5.4,7.1 C5.6,7.2 5.8,7.6 6,7.9 Z M13.4,7.9 C13.5,7.8 13.6,7.7 13.6,7.6 C13.7,7.2 14,6.9 14.3,6.7 C14.4,6.6 14.6,6.5 14.7,6.4 C15,6.2 15.1,6 14.9,5.7 C14.4,5 13.9,4.3 13.4,3.6 C13.2,3.4 13,3.3 12.8,3.5 C12.2,4 11.5,4.4 10.9,5 C11.6,6.1 12.9,6.6 13.4,7.9 Z M48,5.2 C48,5.2 48,5.2 48,5.2 C48.3,5.2 48.7,5.2 49,5.2 C49.4,5.2 49.5,5 49.5,4.7 C49.5,4.1 49.5,3.5 49.5,2.9 C49.5,2.6 49.3,2.4 49,2.4 C48.3,2.4 47.6,2.4 46.8,2.4 C46.5,2.4 46.3,2.6 46.3,2.9 C46.3,3.5 46.3,4.1 46.3,4.7 C46.3,5.1 46.5,5.2 46.9,5.2 C47.3,5.2 47.7,5.2 48,5.2 Z M5.2,14.9 C5,14.4 4.8,13.8 4.3,13.7 C3.3,13.4 2.3,13.2 1.4,12.7 C1.1,12.6 1,12.7 1,13 C1,13.2 1,13.4 1,13.6 C1.2,14.2 1.3,14.7 1.5,15.3 C1.8,16.2 2.7,16.4 3.4,15.9 C3.6,15.8 3.7,15.6 3.9,15.5 C4.3,15 4.7,14.7 5.2,14.9 Z M14.2,14.8 C14.9,14.8 14.9,14.8 15.6,15.4 C15.7,15.5 15.8,15.5 15.9,15.6 C16.3,16 16.7,16 17.2,15.8 C17.5,15.7 17.8,15.5 17.9,15.1 C18.1,14.4 18.3,13.6 18.4,12.9 C18.5,12.6 18.3,12.5 18,12.6 C17.2,12.9 16.5,13.2 15.7,13.4 C14.8,13.7 14.4,14.1 14.2,14.8 Z M9.7,20.3 C10.5,20.2 11.2,20.1 11.9,20 C12.3,19.9 12.3,19.6 12.4,19.4 C12.4,19.1 12.3,19 12,18.9 C11.3,18.7 10.6,18.4 9.9,18.2 C9.8,18.2 9.6,18.2 9.5,18.2 C8.8,18.4 8.1,18.7 7.4,18.9 C7.1,19 7,19.1 7,19.4 C7,19.7 7.1,19.9 7.4,20 C8.2,20.1 9,20.2 9.7,20.3 Z M2.9,10.9 C3.4,9.7 4.3,8.7 5,7.5 C4.6,7.2 4.2,6.9 3.8,6.6 C3.6,6.4 3.4,6.5 3.3,6.8 C3.1,7.5 2.9,8.1 2.7,8.8 C2.6,9.3 2.6,9.9 2.5,10.4 C2.5,10.6 2.5,10.9 2.9,10.9 Z M16.6,10.9 C16.9,10.8 16.9,10.6 16.9,10.3 C16.8,9.1 16.5,7.9 16.1,6.7 C16,6.4 15.8,6.4 15.6,6.6 C15.2,6.9 14.8,7.2 14.4,7.5 C15.2,8.7 15.9,9.8 16.6,10.9 Z M15.4,18.3 C15.4,18.3 15.5,18.4 15.5,18.4 C16,18.3 16.4,18.3 16.9,18.2 C17,18.2 17.1,18.1 17.1,18 C17.6,17.3 18.1,16.6 18.7,15.8 C17.9,16.1 17.3,16.3 16.6,16.5 C16.5,16.5 16.4,16.6 16.3,16.7 C16,17.3 15.7,17.8 15.4,18.3 Z M16.7,19 C16.5,18.9 16.4,18.9 16.3,18.9 C15.4,19 14.6,19.1 13.7,19.1 C13.3,19.1 13.1,19.4 13,19.7 C13.4,19.9 13.7,20 14.1,20.2 C14.4,20.3 14.6,20.4 14.9,20.3 C15.5,20 16.1,19.5 16.7,19 Z M6.3,19.7 C6,19.2 6,19.1 5.5,19.1 C4.8,19 4.1,18.9 3.3,18.9 C3.1,18.9 2.9,18.9 2.7,19 C3.1,19.5 4,20.2 4.4,20.4 C4.7,20.5 4.9,20.5 5.2,20.3 C5.6,20 6,19.9 6.3,19.7 Z M16.5,12.6 C16.9,12.4 17.4,12.2 17.8,12 C17.9,11.9 18,11.7 18.1,11.6 C18.2,11.3 18.2,10.9 18,10.5 C17.6,10.8 17.2,11.1 16.8,11.4 C16.5,11.8 16.3,12.1 16.5,12.6 Z M1.5,10.6 C1.4,10.6 1.4,10.6 1.3,10.7 C1.3,11 1.3,11.3 1.3,11.6 C1.3,11.7 1.4,11.9 1.5,12 C1.9,12.2 2.4,12.5 2.9,12.6 C3,12.2 2.9,11.9 2.7,11.6 C2.3,11.2 1.9,10.9 1.5,10.6 Z M18,19.1 C17.1,19.1 16.6,19.3 16.1,20 C16.9,19.9 17.3,19.5 18,19.1 Z M3.2,19.9 C2.7,19.5 2.3,19 1.5,19.1 C2.2,19.7 2.5,19.9 3.2,19.9 Z" id="Shape" fill="#FFFFFF"></path>
                <path d="M44.9,19.6 C43.2,19.6 41.6,19.6 39.9,19.6 C39.4,19.6 38.9,19.6 38.4,19.4 C36.8,19 35.9,17.9 35.9,16.3 C35.9,14.4 35.9,12.4 35.9,10.5 C35.9,10.3 35.9,10.1 35.9,9.8 C35.9,9.3 35.7,9.1 35.2,9.1 C35.1,9.1 31.5,9.1 27.1,9.1 C26.2,9.1 25.8,9.1 25.9,10.5 C25.9,11.1 26.1,11.3 26.7,11.4 C27.7,11.6 28.7,11.7 29.7,11.9 C30.3,12 30.9,12.1 31.6,12.2 C32.7,12.4 33.2,13.1 33.3,14.2 C33.3,15.4 33.3,16.5 33.3,17.7 C33.3,18.8 32.8,19.4 31.6,19.5 C31.3,19.6 30.9,19.6 30.6,19.6 C28.8,19.6 27,19.6 25.2,19.6 C24.9,19.6 24.7,19.6 24.4,19.6 C23.5,19.5 23,18.9 22.9,18 C22.9,17.4 22.9,16.8 22.9,16.3 C22.9,15.8 23.1,15.6 23.6,15.6 C24.1,15.6 24.7,15.6 25.2,15.6 C25.6,15.6 25.7,15.8 25.8,16.2 C25.9,17 26,17 26.8,17 C27.6,17 28.4,17 29.3,17 C30,17 30.2,16.8 30.2,16.1 C30.2,15.1 30,14.8 29,14.6 C27.7,14.4 26.4,14.2 25.1,14 C24.9,14 24.7,13.9 24.5,13.9 C23.6,13.7 23,13 23,12.1 C22.9,10.9 22.9,9.7 23,8.5 C23,7.6 23.8,6.9 24.7,6.7 C25,6.6 25.3,6.6 25.6,6.6 C32.9,6.6 27.2,6.6 35,6.6 C35.9,6.6 36.1,6.4 36.1,5.5 C36.1,5 36.1,4.6 36.1,4.1 C36.1,3.7 36.2,3.4 36.6,3.2 C37.3,2.9 37.9,2.6 38.6,2.3 C39,2.1 39.2,2.2 39.2,2.7 C39.2,3.3 39.2,3.9 39.2,4.5 C39.2,4.9 39.2,5.3 39.2,5.7 C39.2,6.3 39.4,6.5 40,6.5 C40.6,6.5 41.3,6.5 41.9,6.5 C42.1,6.5 42.3,6.5 42.6,6.5 C43.1,6.5 43.2,6.7 43.2,7.1 C43.2,7.5 43.2,7.9 43.2,8.3 C43.2,8.9 43,9 42.4,9 C41.8,9 41.2,9 40.6,9 C39.3,9 39.2,9 39.2,10.4 C39.2,11.7 39.2,15 39.2,15.3 C39.3,16.2 39.7,16.7 40.7,16.8 C41.1,16.8 41.5,16.8 41.9,16.8 C43.2,16.8 44.4,16.8 45.7,16.8 C46.5,16.8 46.7,16.6 46.7,15.8 C46.7,13.9 46.7,11.9 46.7,10 C46.7,9.3 46.5,9.1 45.8,9.1 C44.7,9.1 44.7,9 44.7,8 C44.7,7.7 44.7,7.5 44.7,7.2 C44.7,6.7 44.9,6.5 45.4,6.5 C45.8,6.5 46.3,6.5 46.7,6.5 C47.4,6.5 48.1,6.5 48.8,6.5 C49.8,6.5 49.8,6.6 49.8,7.5 C49.8,7.8 49.8,15.8 49.8,16 C49.9,16.6 50,16.8 50.6,16.8 C51.7,16.9 51.7,16.9 51.7,18 C51.7,18.3 51.7,18.6 51.7,18.9 C51.7,19.3 51.5,19.4 51.1,19.5 C50.7,19.5 50.4,19.5 50,19.5 C48.2,19.6 46.6,19.6 44.9,19.6 Z" id="Shape" fill="#000000"></path>
                <path d="M63.9,13 C63.9,14.3 63.9,15.6 63.9,16.8 C63.9,18.4 62.8,19.5 61.3,19.5 C59.4,19.5 57.5,19.5 55.6,19.5 C54.1,19.5 53.2,18.6 53,17.2 C53,16.9 53,16.6 52.9,16.3 C52.9,14 52.9,11.8 52.9,9.5 C52.9,9.1 52.9,8.8 53,8.4 C53.2,7.3 53.9,6.6 55,6.4 C55,6.4 55.1,6.4 55.1,6.4 C57.3,6.4 59.5,6.4 61.6,6.4 C62.8,6.4 63.7,7.3 63.8,8.5 C63.8,8.7 63.8,9 63.8,9.2 C63.9,10.6 63.9,11.8 63.9,13 Z M60.7,13 C60.7,13 60.7,13 60.7,13 C60.7,12.1 60.7,11.1 60.7,10.2 C60.7,9.4 60.4,9.2 59.7,9.1 C58.9,9.1 58.1,9.1 57.2,9.1 C56.4,9.1 56.2,9.4 56.1,10.1 C56.1,12 56.1,13.8 56.1,15.7 C56.1,16.5 56.4,16.8 57.2,16.8 C57.9,16.8 58.7,16.8 59.4,16.8 C60.4,16.8 60.6,16.6 60.6,15.6 C60.7,14.8 60.7,13.9 60.7,13 Z" id="Shape" fill="#000000"></path>
                <path d="M9.7,15.9 C9.4,15.8 9.1,15.7 8.8,15.6 C8.1,15.5 7.4,15.4 6.7,15.3 C6.4,15.3 6.3,15.1 6.3,14.8 C6.3,14.7 6.3,14.6 6.3,14.4 C6.2,13.7 6.4,13.3 7,12.9 C7.7,12.5 8.4,12 9.1,11.5 C9.6,11.2 10,11.2 10.4,11.5 C11.2,12 11.9,12.5 12.7,13 C13.1,13.3 13.3,13.6 13.3,14.1 C13.2,15.1 13.3,15.1 12.3,15.3 C11.8,15.4 11.2,15.4 10.7,15.6 C10.3,15.6 10,15.8 9.7,15.9 Z" id="Shape" fill="#000000"></path>
                <path d="M9.7,10.4 C9.6,10.3 9.5,10.3 9.4,10.2 C8.5,9.4 8.2,9.3 7.6,8.8 C7.6,8.8 7.5,8.8 7.5,8.7 C6.7,8.2 6.6,7.9 7.3,7.2 C7.9,6.6 8.5,6 9.2,5.5 C9.7,5.1 9.8,5.1 10.3,5.5 C11,6.1 11.6,6.7 12.2,7.3 C12.3,7.4 12.5,7.6 12.5,7.8 C12.6,8.1 12.6,8.3 12.3,8.5 C11.9,8.7 11.6,8.9 11.2,9.2 C10.8,9.5 10.4,9.9 10,10.2 C9.9,10.3 9.8,10.4 9.7,10.4 Z" id="Shape" fill="#000000"></path>
                <path d="M10.4,10.7 C10.6,10.5 10.8,10.3 11,10.2 C11.8,9.7 12.7,9.1 13.5,8.6 C14,8.3 14.1,8.3 14.5,8.8 C14.9,9.4 15.4,10 15.8,10.6 C16.2,11.2 16,11.9 15.9,12.6 C15.9,12.7 15.5,12.9 15.3,13 C14.9,13.2 14.4,13.3 14,13.4 C14,12.9 13.6,12.7 13.2,12.5 C12.5,12.1 11.8,11.6 11.1,11.2 C10.9,11 10.7,10.9 10.4,10.7 Z" id="Shape" fill="#000000"></path>
                <path d="M5.4,13.4 C4.9,13.3 4.5,13.1 4.1,13 C3.5,12.8 3.5,12.8 3.4,12.2 C3.3,11.3 3.5,10.6 4,9.9 C4.3,9.5 4.6,9.1 4.9,8.7 C5.1,8.4 5.3,8.4 5.6,8.6 C6.5,9.2 7.5,9.7 8.4,10.3 C8.9,10.6 8.9,10.7 8.3,11 C7.6,11.5 6.8,11.9 6.1,12.4 C5.9,12.6 5.5,12.9 5.4,13.4 Z" id="Shape" fill="#000000"></path>
                <path d="M13.8,20.9 C13.6,21 13.5,21.2 13.3,21.3 C12.2,21.9 11.4,22.7 10.4,23.5 C9.8,24 9.7,24 9,23.5 C8.1,22.8 7.2,21.9 6.1,21.3 C5.9,21.2 5.7,21.1 5.6,20.9 C6,20.4 6.4,20.3 6.9,20.4 C7.5,20.5 8.2,20.6 8.8,20.7 C9.2,20.8 9.6,20.8 9.6,21.4 C9.8,20.8 10.3,20.7 10.7,20.6 C11.3,20.5 11.8,20.4 12.4,20.3 C13,20.2 13.4,20.3 13.8,20.9 Z" id="Shape" fill="#000000"></path>
                <path d="M4.9,15.6 C5.9,15.8 6.8,15.9 7.7,16.1 C7.9,16.1 8,16.2 8.2,16.2 C9.1,16.3 9.2,16.4 9.3,17.2 C9.3,17.5 9.3,17.7 9,17.8 C8.5,18 8.1,18.1 7.6,18.3 C7.2,18.4 6.8,18.6 6.5,18.7 C6.4,18.7 6.3,18.7 6.2,18.7 C6,18.7 5.8,18.6 5.6,18.6 C4.8,18.7 4.4,18.3 4.1,17.7 C3.9,17.4 3.7,17 3.6,16.7 C4,16.4 4.3,16.1 4.7,15.8 C4.7,15.6 4.9,15.6 4.9,15.6 Z" id="Shape" fill="#000000"></path>
                <path d="M14.5,15.6 C14.6,15.7 14.9,15.8 15.1,16 C16,16.7 16,16.7 15.4,17.6 C15.4,17.6 15.3,17.7 15.3,17.7 C15,18.3 14.6,18.7 13.8,18.6 C13.6,18.6 13.4,18.7 13.2,18.7 C13.1,18.7 13,18.7 12.9,18.7 C12.2,18.4 11.4,18.2 10.7,17.9 C10.1,17.7 10.1,17.7 10.1,17.2 C10.2,16.4 10.3,16.2 10.9,16.2 C11.7,16.1 12.5,16 13.3,15.8 C13.7,15.7 14,15.7 14.5,15.6 Z" id="Shape" fill="#000000"></path>
                <path d="M9.7,4.3 C9.8,4.3 9.9,4.4 9.9,4.4 C10.3,4.7 10.6,4.4 10.9,4.2 C11.3,3.9 11.6,3.6 12,3.3 C12.2,3.1 12.3,2.9 12.1,2.7 C11.5,2.1 10.8,1.5 10.2,0.9 C10.1,0.8 9.9,0.7 9.7,0.7 C9.6,0.7 9.4,0.8 9.2,0.9 C8.6,1.5 7.9,2.1 7.3,2.7 C7.1,2.9 7.1,3.1 7.4,3.3 C7.8,3.6 8.2,3.9 8.5,4.2 C8.8,4.5 9,4.7 9.5,4.4 C9.6,4.3 9.7,4.3 9.7,4.3" id="Shape" fill="#000000"></path>
                <path d="M13.4,7.9 C12.6,6.4 11.7,6 10.9,5 C11.5,4.4 12.1,4 12.8,3.5 C13,3.3 13.3,3.4 13.4,3.6 C13.9,4.3 14.4,5 14.9,5.7 C15.1,6 15,6.2 14.7,6.4 C14.6,6.5 14.4,6.6 14.3,6.7 C14,6.9 13.7,7.2 13.6,7.6 C13.6,7.7 13.5,7.8 13.4,7.9 Z" id="Shape" fill="#000000"></path>
                <path d="M6,7.9 C6.8,6.4 7.7,6 8.5,5 C7.9,4.4 7.3,4 6.6,3.5 C6.4,3.3 6.1,3.4 6,3.6 C5.5,4.3 5,5 4.5,5.7 C4.3,6 4.4,6.2 4.7,6.4 C4.8,6.5 5,6.6 5.1,6.7 C5.4,6.9 5.7,7.2 5.8,7.6 C5.8,7.7 5.9,7.8 6,7.9 Z" id="Shape" fill="#000000"></path>
                <path d="M48,5.2 C47.7,5.2 47.3,5.2 47,5.2 C46.7,5.2 46.4,5 46.4,4.7 C46.4,4.1 46.4,3.5 46.4,2.9 C46.4,2.6 46.6,2.4 46.9,2.4 C47.6,2.4 48.3,2.4 49.1,2.4 C49.4,2.4 49.6,2.6 49.6,2.9 C49.6,3.5 49.6,4.1 49.6,4.7 C49.6,5.1 49.4,5.2 49.1,5.2 C48.7,5.2 48.3,5.2 48,5.2 C48,5.2 48,5.2 48,5.2 Z" id="Shape" fill="#000000"></path>
                <path d="M5.2,14.9 C4.7,14.7 4.3,15 4,15.3 C3.8,15.4 3.7,15.6 3.5,15.7 C2.8,16.3 1.9,16 1.6,15.1 C1.4,14.6 1.3,14 1.1,13.4 C1.1,13.2 1.1,13 1.1,12.8 C1.1,12.6 1.2,12.4 1.5,12.5 C2.4,13 3.4,13.3 4.4,13.5 C4.9,13.8 5,14.4 5.2,14.9 Z" id="Shape" fill="#000000"></path>
                <path d="M14.2,14.8 C14.4,14.1 14.9,13.7 15.6,13.5 C16.4,13.3 17.1,13 17.9,12.7 C18.2,12.6 18.4,12.6 18.3,13 C18.2,13.8 17.9,14.5 17.8,15.2 C17.7,15.6 17.5,15.7 17.1,15.9 C16.6,16.1 16.2,16.1 15.8,15.7 C15.7,15.6 15.6,15.5 15.5,15.5 C14.9,14.9 14.9,14.9 14.2,14.8 Z" id="Shape" fill="#000000"></path>
                <path d="M9.7,20.3 C8.9,20.2 8.2,20.1 7.4,19.9 C7.1,19.8 7,19.6 7,19.3 C7,19 7.1,18.9 7.4,18.8 C8.1,18.6 8.8,18.3 9.5,18.1 C9.6,18.1 9.8,18.1 9.9,18.1 C10.6,18.3 11.3,18.6 12,18.8 C12.2,18.9 12.4,19 12.4,19.3 C12.3,19.6 12.3,19.9 11.9,19.9 C11.2,20.1 10.5,20.2 9.7,20.3 Z" id="Shape" fill="#000000"></path>
                <path d="M2.9,10.9 C2.6,10.8 2.5,10.6 2.5,10.3 C2.5,9.8 2.6,9.2 2.7,8.7 C2.9,8 3.1,7.4 3.3,6.7 C3.4,6.4 3.5,6.3 3.8,6.5 C4.2,6.8 4.6,7.1 5,7.4 C4.2,8.7 3.4,9.7 2.9,10.9 Z" id="Shape" fill="#000000"></path>
                <path d="M16.6,10.9 C15.9,9.7 15.2,8.7 14.4,7.5 C14.8,7.2 15.2,6.9 15.6,6.6 C15.8,6.4 16,6.4 16.1,6.7 C16.5,7.9 16.8,9 16.9,10.3 C16.9,10.6 16.9,10.8 16.6,10.9 Z" id="Shape" fill="#000000"></path>
                <path d="M0.7,15.8 C1.4,16 2,16.3 2.7,16.5 C2.9,16.6 3,16.7 3.2,16.8 C3.5,17.2 3.8,17.7 4.2,18.3 C3.2,18.2 2.4,18.3 2,17.4 C1.5,16.9 1.1,16.4 0.7,15.8 Z" id="Shape" fill="#000000"></path>
                <path d="M15.4,18.3 C15.7,17.8 16,17.3 16.4,16.8 C16.5,16.7 16.6,16.6 16.7,16.6 C17.4,16.4 18,16.2 18.8,15.9 C18.2,16.7 17.7,17.4 17.2,18.1 C17.1,18.2 17.1,18.2 17,18.3 C16.5,18.4 16.1,18.4 15.6,18.5 C15.4,18.4 15.4,18.3 15.4,18.3 Z" id="Shape" fill="#000000"></path>
                <path d="M16.7,19 C16.1,19.5 15.5,20 14.9,20.3 C14.6,20.5 14.4,20.4 14.1,20.2 C13.8,20 13.4,19.9 13,19.7 C13.1,19.4 13.3,19.1 13.7,19.1 C14.6,19 15.4,18.9 16.3,18.9 C16.4,18.9 16.5,18.9 16.7,19 Z" id="Shape" fill="#000000"></path>
                <path d="M6.3,19.7 C5.9,19.9 5.6,20 5.2,20.2 C4.9,20.3 4.7,20.4 4.4,20.3 C4,20.1 3.1,19.4 2.7,18.9 C2.9,18.9 3.1,18.8 3.3,18.8 C4,18.9 4.7,18.9 5.5,19 C6,19.1 6.1,19.2 6.3,19.7 Z" id="Shape" fill="#000000"></path>
                <path d="M16.5,12.6 C16.3,12.1 16.5,11.8 16.8,11.5 C17.2,11.2 17.5,10.9 18,10.6 C18.2,11 18.2,11.3 18.1,11.7 C18.1,11.8 18,12 17.8,12.1 C17.4,12.2 16.9,12.4 16.5,12.6 Z" id="Shape" fill="#000000"></path>
                <path d="M1.5,10.6 C1.9,10.9 2.3,11.3 2.7,11.6 C3,11.8 3,12.2 2.9,12.6 C2.4,12.5 1.9,12.3 1.5,12 C1.4,11.9 1.3,11.7 1.3,11.6 C1.3,11.3 1.3,11 1.3,10.7 C1.4,10.6 1.4,10.6 1.5,10.6 Z" id="Shape" fill="#000000"></path>
                <path d="M3.5,20.6 C5,20.8 6.2,21.4 7.3,22.4 C7,22.3 6.7,22.2 6.5,22.1 C5.7,21.7 4.9,21.4 4.2,21 C3.9,20.9 3.7,20.7 3.5,20.6 Z" id="Shape" fill="#000000"></path>
                <path d="M15.9,20.6 C15.6,20.8 15.3,21 15,21.1 C14.1,21.5 13.3,21.9 12.4,22.3 C12.4,22.3 12.4,22.3 12.3,22.3 C13,21.4 14.7,20.7 15.9,20.6 C16,20.6 15.9,20.6 15.9,20.6 Z" id="Shape" fill="#000000"></path>
                <path d="M18,19.1 C17.3,19.5 16.8,19.9 16.1,20 C16.6,19.4 17.1,19.1 18,19.1 Z" id="Shape" fill="#000000"></path>
                <path d="M3.2,19.9 C2.5,19.8 2.2,19.7 1.5,19.1 C2.3,19 2.7,19.5 3.2,19.9 Z" id="Shape" fill="#000000"></path>
                <path d="M3.5,20.6 C3.5,20.6 3.4,20.6 3.4,20.6 C3.4,20.6 3.4,20.6 3.5,20.6 C3.4,20.6 3.5,20.6 3.5,20.6 Z" id="Shape" fill="#000000"></path>
                <path d="M60.7,13 C60.7,13.9 60.7,14.7 60.7,15.6 C60.7,16.6 60.5,16.8 59.5,16.8 C58.8,16.8 58,16.8 57.3,16.8 C56.5,16.8 56.2,16.5 56.2,15.7 C56.2,13.8 56.2,12 56.2,10.1 C56.2,9.3 56.5,9.1 57.3,9.1 C58.1,9.1 58.9,9.1 59.8,9.1 C60.6,9.1 60.8,9.4 60.8,10.2 C60.7,11.1 60.7,12.1 60.7,13 C60.7,13 60.7,13 60.7,13 Z" id="Shape" fill="#FFFFFF"></path>
            </g>
        </g>
    </g>
</svg>