<?xml version="1.0" encoding="UTF-8"?>
<svg width="129px" height="10px" viewBox="0 0 129 10" version="1.1" xmlns="http://www.w3.org/2000/svg" xmlns:xlink="http://www.w3.org/1999/xlink">
    <!-- Generator: Sketch 48.2 (47327) - http://www.bohemiancoding.com/sketch -->
    <title>warby_parker</title>
    <desc>Created with Sketch.</desc>
    <defs></defs>
    <g id="Page-1" stroke="none" stroke-width="1" fill="none" fill-rule="evenodd">
        <g id="warby_parker" fill="#000000" fill-rule="nonzero">
            <path d="M124.2,5 L121.8,5 L121.8,1.6 L124.3,1.6 C125.4,1.6 126.3,2.3 126.3,3.4 C126.2,4.3 125.6,5 124.2,5 Z M128,8.9 C127.3,7.9 126.2,6.5 125.8,5.9 C126.8,5.5 127.6,4.6 127.6,3.3 C127.6,1.7 126.3,0.3 124.3,0.3 L120.8,0.3 C120.7,0.3 120.4,0.5 120.4,0.7 C120.4,0.9 120.4,8.9 120.4,9.1 C120.4,9.2 120.4,9.2 120.5,9.4 C120.6,9.5 120.8,9.5 120.8,9.5 L121.4,9.5 C121.4,9.5 121.6,9.5 121.7,9.4 C121.8,9.3 121.8,9.2 121.8,9.1 L121.8,6.1 L124.4,6.1 L126.7,9.3 C126.8,9.4 127,9.5 127.1,9.5 L127.7,9.5 C127.7,9.5 128.1,9.4 128.1,9.1 C128.2,9.1 128.1,9 128,8.9 Z M116.7,8.8 C116.7,8.7 116.7,8.7 116.6,8.5 C116.5,8.4 116.4,8.4 116.3,8.4 C116.3,8.4 116.3,8.4 116.2,8.4 L111.3,8.4 L111.3,5.6 L116.1,5.6 C116.4,5.6 116.5,5.2 116.5,5.1 L116.5,4.8 C116.5,4.7 116.4,4.3 116.1,4.3 L111.3,4.3 L111.3,1.6 L116.1,1.6 C116.2,1.6 116.3,1.6 116.5,1.4 C116.6,1.2 116.6,1.2 116.6,1.1 L116.6,0.8 C116.6,0.7 116.6,0.6 116.5,0.5 C116.4,0.4 116.2,0.4 116.2,0.4 L110.3,0.4 C110.3,0.4 110.2,0.4 110.1,0.5 C109.9,0.6 110,0.8 110,0.8 L110,9.2 C110,9.3 110,9.4 110.1,9.5 C110.2,9.7 110.4,9.7 110.4,9.7 L116.3,9.7 C116.4,9.7 116.4,9.7 116.6,9.6 C116.7,9.4 116.7,9.3 116.7,9.3 L116.7,8.8 Z M103.2,4.2 L106.2,0.9 C106.2,0.8 106.3,0.8 106.3,0.7 C106.3,0.5 106.1,0.3 105.9,0.3 L105.3,0.3 C105.1,0.3 104.9,0.4 104.9,0.4 L100.4,5.4 L100.4,0.7 C100.4,0.6 100.4,0.5 100.3,0.4 C100.2,0.3 100,0.3 100,0.3 L99.5,0.3 C99.4,0.3 99.3,0.3 99.2,0.4 C99.1,0.5 99.1,0.6 99.1,0.7 C99.1,0.8 99.1,9 99.1,9.1 C99.1,9.2 99.1,9.3 99.2,9.4 C99.3,9.5 99.4,9.5 99.5,9.5 L100,9.5 C100.1,9.5 100.2,9.5 100.3,9.4 C100.4,9.3 100.4,9.1 100.4,9.1 L100.4,7.2 L102.3,5.2 L105.5,9.3 C105.6,9.4 105.7,9.5 106,9.6 L106.6,9.6 C106.7,9.6 107,9.5 107,9.2 C107,9.1 107,9 106.9,8.9 L103.2,4.2 Z M91.5,5 L89.1,5 L89.1,1.6 L91.6,1.6 C92.7,1.6 93.6,2.3 93.6,3.4 C93.6,4.3 93,5 91.5,5 Z M93.1,5.9 C94.1,5.5 94.9,4.6 94.9,3.3 C94.9,1.7 93.6,0.3 91.6,0.3 L88.1,0.3 C88,0.3 87.7,0.5 87.7,0.7 L87.7,9.1 C87.7,9.2 87.7,9.2 87.8,9.4 C87.9,9.5 88.1,9.5 88.1,9.5 L88.7,9.5 C88.7,9.5 88.9,9.5 89,9.4 C89.1,9.3 89.1,9.2 89.1,9.1 L89.1,6.1 L91.7,6.1 L94.1,9.3 C94.1,9.4 94.4,9.5 94.5,9.5 L95,9.5 C95.1,9.5 95.5,9.4 95.5,9.1 C95.5,9 95.4,8.8 95.4,8.8 C94.7,8 93.6,6.6 93.1,5.9 Z M78.2,6.3 C78.6,5.5 79.5,3.7 80.1,2.4 C80.1,2.4 80.1,2.4 80.1,2.4 C80.1,2.4 80.1,2.4 80.1,2.4 C80.7,3.7 81.6,5.5 82,6.3 L78.2,6.3 Z M80.5,0.4 C80.5,0.4 80.4,0.1 80.1,0.1 C79.9,0.1 79.7,0.4 79.7,0.4 C78.8,2 75.8,8.1 75.3,9 C75.3,9 75.2,9.1 75.2,9.3 C75.2,9.6 75.6,9.6 75.7,9.6 L76.2,9.6 C76.4,9.6 76.7,9.4 76.7,9.3 L77.6,7.5 L82.6,7.5 L83.5,9.3 C83.5,9.4 83.7,9.6 83.9,9.6 C83.9,9.6 83.9,9.6 83.9,9.6 L84.5,9.6 C84.6,9.6 84.9,9.5 84.9,9.2 C84.9,9.1 84.9,9 84.8,9 C84.4,7.9 81.3,2 80.5,0.4 Z M70.7,5 C70,5 68.8,5 68.2,5 L68.2,1.6 L70.7,1.6 C71.8,1.6 72.7,2.2 72.7,3.3 C72.7,4.5 71.8,5 70.7,5 Z M70.8,0.4 L67.3,0.4 C67.3,0.4 67.1,0.4 67,0.5 C66.9,0.6 66.9,0.7 66.9,0.8 L66.9,9.2 C66.9,9.3 66.9,9.3 67,9.5 C67.1,9.6 67.2,9.6 67.3,9.6 L67.9,9.6 C67.9,9.6 68.1,9.6 68.2,9.4 C68.3,9.3 68.3,9.2 68.3,9.2 L68.3,6.3 L70.5,6.3 C72.6,6.3 74.1,5.2 74.1,3.4 C74.1,1.5 72.5,0.4 70.8,0.4 Z M56.5,0.4 L56,0.4 C55.8,0.4 55.6,0.6 55.6,0.7 C55.1,1.4 53.5,3.9 52.9,4.8 C52.3,3.8 50.7,1.3 50.2,0.6 C50.2,0.5 49.9,0.3 49.8,0.4 L49.3,0.4 C49.2,0.4 48.9,0.4 48.8,0.8 C48.8,0.9 48.9,1 48.9,1 C49.6,2 51.9,5.7 52.3,6.2 L52.3,9.3 C52.3,9.4 52.3,9.5 52.4,9.6 C52.5,9.7 52.6,9.7 52.7,9.7 L53.2,9.7 C53.3,9.7 53.4,9.7 53.5,9.6 C53.6,9.4 53.6,9.4 53.6,9.3 L53.6,6.3 C54,5.8 56.2,2.3 56.9,1.2 C56.9,1.1 57,1.1 57,0.9 C56.9,0.4 56.5,0.4 56.5,0.4 Z M43.2,8.4 L40.2,8.4 L40.2,5.6 L43.2,5.6 C44.5,5.6 45.2,6.2 45.2,7 C45.1,8 44.6,8.3 43.2,8.4 Z M40.2,1.6 L42.8,1.6 C44,1.6 44.6,2.2 44.7,3 C44.6,4 44.3,4.3 43.1,4.4 L40.3,4.4 L40.3,1.6 L40.2,1.6 Z M45.2,4.8 C45.7,4.4 46.1,3.8 46,2.9 C46,1.3 44.5,0.4 42.7,0.4 L39.2,0.4 C39.1,0.4 39,0.4 38.9,0.5 C38.8,0.6 38.8,0.7 38.8,0.8 L38.8,9.2 C38.8,9.3 39,9.6 39.2,9.6 L43.3,9.6 C45.3,9.6 46.5,8.7 46.5,7 C46.5,6 46,5.2 45.2,4.8 Z M31.3,5 L28.9,5 L28.9,1.6 L31.4,1.6 C32.5,1.6 33.4,2.3 33.4,3.4 C33.3,4.3 32.7,5 31.3,5 Z M32.9,5.9 C33.9,5.4 34.7,4.5 34.7,3.3 C34.7,1.7 33.4,0.3 31.4,0.3 L27.9,0.3 C27.9,0.3 27.7,0.3 27.6,0.4 C27.5,0.5 27.5,0.6 27.5,0.7 L27.5,9.1 C27.5,9.2 27.5,9.2 27.6,9.4 C27.7,9.6 27.9,9.6 27.9,9.6 L28.5,9.6 C28.6,9.6 28.7,9.6 28.8,9.5 C28.9,9.4 28.9,9.3 28.9,9.2 L28.9,6.2 L31.5,6.2 L33.9,9.4 C34,9.5 34.1,9.6 34.3,9.6 L34.9,9.6 C35,9.6 35.4,9.5 35.4,9.2 C35.4,9.1 35.3,8.9 35.3,8.9 C34.4,8 33.4,6.6 32.9,5.9 Z M17.9,6.3 C18.3,5.5 19.2,3.7 19.8,2.4 C19.8,2.4 19.8,2.4 19.8,2.4 C19.8,2.4 19.8,2.4 19.8,2.4 C20.4,3.7 21.3,5.5 21.7,6.3 L17.9,6.3 Z M20.2,0.4 C20.2,0.4 20.1,0.1 19.8,0.1 C19.6,0.1 19.4,0.4 19.4,0.4 C18.6,2 15.5,8.1 15,9 C15,9 14.9,9.1 14.9,9.3 C14.9,9.6 15.3,9.6 15.4,9.6 L15.9,9.6 C16.1,9.6 16.4,9.4 16.4,9.3 L17.3,7.5 L22.3,7.5 L23.2,9.3 C23.2,9.4 23.5,9.6 23.6,9.6 C23.6,9.6 23.6,9.6 23.6,9.6 L24.2,9.6 C24.3,9.6 24.6,9.5 24.6,9.2 C24.6,9.1 24.6,9 24.5,9 C24.1,7.9 21.1,2 20.2,0.4 Z M13.2,0.4 L12.7,0.4 C12.6,0.4 12.2,0.5 12.2,0.7 L9.9,7 L7.6,0.6 C7.6,0.4 7.2,0.3 7.2,0.3 C7.1,0.3 6.8,0.5 6.8,0.6 L4.5,7 C3.9,5.6 2.7,2.5 2,0.7 C2,0.6 1.8,0.3 1.6,0.4 L1,0.4 C1,0.4 0.9,0.4 0.8,0.4 C0.7,0.5 0.6,0.6 0.6,0.7 C0.6,0.8 0.6,0.9 0.6,0.9 L4,9.5 C4.1,9.7 4.3,9.7 4.4,9.7 C4.4,9.7 4.7,9.7 4.8,9.4 C5.5,7.6 6.5,4.7 7.1,3.2 C7.6,4.6 8.7,7.6 9.4,9.4 C9.4,9.6 9.8,9.7 9.8,9.7 C9.8,9.7 10.2,9.6 10.2,9.4 C11.3,6.5 12.7,3.1 13.6,0.8 C13.6,0.7 13.6,0.7 13.6,0.6 C13.7,0.4 13.3,0.4 13.2,0.4 Z" id="Shape"></path>
        </g>
    </g>
</svg>